<?xml version="1.0" encoding="utf-8"?>
<!-- Generator: Adobe Illustrator 19.2.1, SVG Export Plug-In . SVG Version: 6.00 Build 0)  -->
<svg version="1.1" xmlns="http://www.w3.org/2000/svg" xmlns:xlink="http://www.w3.org/1999/xlink" x="0px" y="0px"
	 viewBox="0 0 1029.3 902.7" style="enable-background:new 0 0 1029.3 902.7;" xml:space="preserve">
<style type="text/css">
	.st0{fill:none;stroke:#D1240D;stroke-width:10;stroke-miterlimit:10;}
	.st1{fill-rule:evenodd;clip-rule:evenodd;fill:#FFFFFF;}
	.st2{fill-rule:evenodd;clip-rule:evenodd;fill:#FCCE3D;}
	.st3{fill-rule:evenodd;clip-rule:evenodd;fill:#ADECF7;}
	.st4{fill-rule:evenodd;clip-rule:evenodd;fill:#F26D6E;}
	.st5{fill-rule:evenodd;clip-rule:evenodd;fill:#A6A9AB;}
	.st6{fill-rule:evenodd;clip-rule:evenodd;fill:#F9BF92;}
	.st7{fill-rule:evenodd;clip-rule:evenodd;fill:#F9D4B4;}
	.st8{fill-rule:evenodd;clip-rule:evenodd;fill:#FBFFFC;}
	.st9{fill-rule:evenodd;clip-rule:evenodd;fill:#3C4650;}
	.st10{fill-rule:evenodd;clip-rule:evenodd;fill:#3F3E43;}
	.st11{fill-rule:evenodd;clip-rule:evenodd;fill:#EE6249;}
	.st12{fill-rule:evenodd;clip-rule:evenodd;fill:#FFDF86;}
	.st13{fill-rule:evenodd;clip-rule:evenodd;fill:#DBDBDB;}
	.st14{fill-rule:evenodd;clip-rule:evenodd;fill:#A1A1A1;}
	.st15{fill-rule:evenodd;clip-rule:evenodd;fill:#686868;}
</style>
<g id="Слой_1">
	<g id="Analytics">
		<g id="Background">
			<circle id="Background_2" class="st0" cx="496.9" cy="488.6" r="399"/>
		</g>
	</g>
</g>
<g id="Слой_2">
	<g id="Scheduling_1_">
		<g>
			<g>
				<rect x="407.9" y="246.6" class="st1" width="546.6" height="370.9"/>
				<path class="st2" d="M403.8,246.6h554.8c6.9,0,12.4,5.6,12.4,12.4l0,0c0,6.9-5.6,12.4-12.4,12.4H403.8
					c-6.9,0-12.4-5.6-12.4-12.4l0,0C391.3,252.2,396.9,246.6,403.8,246.6L403.8,246.6z"/>
				<path class="st1" d="M605.2,613.1l8.8,4.6c4,2.1,5.6,7.1,3.4,11.2l-84.7,161.3c-2.2,4-7.1,5.6-11.2,3.5l-8.8-4.6
					c-4-2.2-5.6-7.1-3.5-11.2L594,616.5C596.2,612.5,601.2,610.9,605.2,613.1L605.2,613.1z"/>
				<path class="st1" d="M757.1,613.1l-8.7,4.6c-4,2.1-5.6,7.1-3.5,11.2l84.7,161.3c2.2,4,7.1,5.6,11.2,3.5l8.8-4.6
					c4-2.2,5.6-7.1,3.5-11.2l-84.7-161.3C766.1,612.5,761.1,610.9,757.1,613.1L757.1,613.1z"/>
				<path class="st1" d="M676.2,754.1h10c4.6,0,8.3-3.7,8.3-8.3V613.7c0-4.6-3.7-8.3-8.3-8.3h-10c-4.6,0-8.3,3.8-8.3,8.3v132.1
					C667.9,750.5,671.6,754.1,676.2,754.1L676.2,754.1z"/>
				<path class="st2" d="M403.8,604.3h554.8c6.9,0,12.4,5.6,12.4,12.4l0,0c0,6.9-5.6,12.4-12.4,12.4H403.8
					c-6.9,0-12.4-5.6-12.4-12.4l0,0C391.3,609.9,396.9,604.3,403.8,604.3L403.8,604.3z"/>
			</g>
			<g>
				<g>
					<path class="st3" d="M515.6,433.2c32.1,0,58.4-26.3,58.4-58.4c0-32.2-26.3-58.4-58.4-58.4c-32.2,0-58.4,26.2-58.4,58.4
						C457.2,406.9,483.4,433.2,515.6,433.2L515.6,433.2z"/>
					<polygon class="st4" points="483.2,362.3 513.6,414.1 585.3,296.5 515.3,376.7 					"/>
				</g>
				<g>
					<rect x="628.4" y="346.2" class="st5" width="275.4" height="8.8"/>
					<rect x="738.5" y="371.1" class="st5" width="165.2" height="8.7"/>
					<rect x="625" y="396" class="st5" width="181" height="8.7"/>
					<rect x="852" y="396" class="st5" width="51.7" height="8.7"/>
					<rect x="657.6" y="371.1" class="st5" width="29.2" height="8.7"/>
				</g>
				<g>
					<path class="st3" d="M826.7,565.4c27,0,49-22.1,49-49.1c0-27-22-49-49-49c-27,0-49,22-49,49
						C777.6,543.3,799.6,565.4,826.7,565.4L826.7,565.4z"/>
					<path class="st4" d="M822,507.4h-5.4l-3.4,5.9l-3.4-5.9h-5.4l6.5,11.2v6.5h4.6v-6.5L822,507.4z M824,525.2h11v-3.8h-6.4v-3.3
						h5.7v-3.9h-5.7v-2.9h6.4v-3.9h-11V525.2z M848.9,512.9c0-3-2.4-5.4-5.4-5.4c-3,0-5.4,2.4-5.4,5.4c0,3.1,2.4,5.5,5.4,5.5
						c0.7,0,1.3,0.6,1.3,1.3c0,0.7-0.6,1.3-1.3,1.3c-0.7,0-1.3-0.5-1.3-1.3H838c0,3.2,2.4,5.5,5.4,5.5c3,0,5.4-2.4,5.4-5.4
						c0-1.3-0.4-2.5-1.1-3.4c-1-1.3-2.6-2.1-4.3-2.1c-0.7,0-1.3-0.6-1.3-1.3c0-0.7,0.5-1.3,1.3-1.3c0.7,0,1.3,0.6,1.3,1.3H848.9z"/>
				</g>
				<g>
					<path class="st5" d="M579.4,537.6c24.6,0,44.7-20,44.7-44.7c0-24.6-20-44.7-44.7-44.7c-24.6,0-44.7,20.1-44.7,44.7
						C534.7,517.6,554.8,537.6,579.4,537.6L579.4,537.6z"/>
					<path class="st5" d="M693.9,520.9c15.4,0,27.9-12.6,27.9-27.9c0-15.4-12.5-27.9-27.9-27.9c-15.4,0-27.9,12.5-27.9,27.9
						C666,508.3,678.5,520.9,693.9,520.9L693.9,520.9z"/>
					<path class="st5" d="M643.8,584.8c13.9,0,25.1-11.2,25.1-25c0-13.9-11.2-25.1-25.1-25.1c-13.8,0-25.1,11.2-25.1,25.1
						C618.7,573.6,630,584.8,643.8,584.8L643.8,584.8z"/>
					<path class="st1" d="M685.4,486.7c-0.1-0.9-0.1-1.7-0.1-2.5c0-2.6,0.3-4.6,1.1-6.1c1-1.7,2.7-2.9,4.9-3.3
						c1.1-0.3,2.2-0.3,3.2-0.3c1.1,0,2,0.1,3,0.3c1.8,0.5,3.3,1.4,4.4,3c1.1,1.5,1.7,3.7,1.8,6.4v0.7c0,2.4-0.4,4-1.1,5.1
						c-0.8,1.2-2.1,2.1-4,2.7c1.5,0.3,2.7,0.8,3.4,1.7c0.8,0.9,1.3,2.1,1.6,3.6c0.2,0.8,0.3,1.7,0.3,2.7c0,0.8-0.1,1.7-0.2,2.6
						c-0.2,2-1.1,3.8-2.5,5.3c-1.4,1.5-3.6,2.3-6.6,2.4h-0.4c-2.8,0-5-0.7-6.7-2.2c-1.7-1.5-2.6-4.7-2.6-9.5v-0.2l6.4-0.3
						c0,0.3-0.1,0.5-0.1,0.8c0,3.4,0.9,5.2,2.8,5.4c0.1,0,0.3,0,0.3,0c1.7,0,2.8-0.9,3.1-2.7c0.1-0.5,0.1-1,0.1-1.5
						c0-1.3-0.3-2.4-1.1-3.4c-1-1.3-2.7-2-5-2l-0.3-4.6c0.3,0,0.5,0,0.8,0c2.1,0,3.5-0.6,4.2-1.8c0.7-1.1,1.1-2.5,1.1-4.2
						c0-0.4,0-0.7-0.1-1.1c-0.1-2.1-1.1-3.2-2.8-3.2h-0.3c-1.8,0.1-2.6,1.8-2.6,5.2c0,0.4,0,0.8,0,1.3L685.4,486.7z"/>
					<path class="st1" d="M565.7,482.9c-0.1-1.2-0.1-2.3-0.1-3.3c0-3.6,0.7-6.1,2-7.7c1.7-2,3.8-3.2,6.3-3.6
						c0.9-0.1,1.8-0.2,2.7-0.2c1.6,0,3.1,0.2,4.6,0.7c2.3,0.7,4,2.1,5.1,4.1c0.9,1.7,1.4,3.9,1.4,6.6c0,0.5,0,1.1,0,1.7
						c-0.3,3.4-1.3,6.5-3.1,9.4c-1.8,2.9-5,7.1-9.5,12.4l13,0.1l-0.1,7.5c-5.7,0.3-13.1,0.4-22.1,0.4l-0.7-8.1
						c5.4-5.9,9.3-10.4,11.6-13.5c2.2-2.9,3.2-5.8,3.2-8.5v-0.7c-0.2-3-1.5-4.5-3.8-4.5h-0.1c-2,0.1-3,1.9-3,5.4
						c0,0.7,0.1,1.4,0.1,2.2L565.7,482.9z"/>
					<path class="st1" d="M647.1,547.1c-0.1,6.1-0.1,12.2-0.1,18.3c0,3.1,0,6.1,0.1,9.1l-4.8,0.3c-0.1-7.9-0.2-15.1-0.3-21.7
						c-1.1,0.2-2.6,0.7-4.5,1.6l-0.9-4.3l5.4-3.4L647.1,547.1z"/>
				</g>
			</g>
		</g>
		<g>
			<polygon class="st6" points="208.5,374 262.9,374 317.3,374 317.3,459.8 262.9,459.8 208.5,459.8 			"/>
			<path class="st7" d="M262.9,414.8c-57.8-0.7-104.6-63.1-104.6-139.9c0-76.9,46.7-139.3,104.6-139.9
				c57.8,0.7,104.6,63.1,104.6,139.9C367.5,351.7,320.7,414.1,262.9,414.8L262.9,414.8z"/>
			<polygon class="st8" points="181.8,430.1 252.5,685.1 252.5,759.5 262.9,722.3 273.2,759.5 273.2,685.1 344,430.1 317.3,427.9 
				262.9,451.5 208.5,427.9 			"/>
			<polygon class="st9" points="181.8,430.1 87.5,465.5 55.7,650.2 105.8,829.8 262.9,829.8 420,829.8 470,650.2 438.3,465.5 
				344,430.1 262.9,714.7 			"/>
			<path class="st10" d="M262.9,117.3c-30.3,5.8-48.1-0.6-67.9,11.4c-27.8,16.8-53.5,61.5-43,123.9c2.9,17.6,5.9,35.2,8.8,52.8
				c5.6-30.5,3.4-61.7,28-90.4c8.9,8.9-4.4,20,4.4,29c7.7-21.7,44.7-34.5,69.7-37.9c26-1.3,71.7,4,88.2,18.7
				c19,17,7.8,47.8,13.9,80.6c3-17.6,5.9-35.2,8.9-52.8c10.5-62.5-15.3-107.1-43-123.9C310.9,116.7,293.2,123.1,262.9,117.3
				L262.9,117.3z"/>
			<polygon class="st11" points="262.9,451.5 238.5,476.2 251.3,506.8 241.5,643.9 262.9,714.7 284.3,643.9 274.5,506.8 
				287.3,476.2 			"/>
		</g>
		<g>
			<path class="st11" d="M691.9,290.4c66.8,0,121.2-54.5,121.2-121.2c0-66.8-54.4-121.2-121.2-121.2c-66.8,0-121.2,54.4-121.2,121.2
				C570.7,236,625.1,290.4,691.9,290.4L691.9,290.4z"/>
			<path class="st12" d="M691.9,270.1c55.5,0,100.9-45.3,100.9-100.9c0-55.5-45.3-100.9-100.9-100.9c-55.6,0-100.9,45.3-100.9,100.9
				C591,224.7,636.3,270.1,691.9,270.1L691.9,270.1z"/>
			<rect x="686.4" y="91.2" class="st11" width="11" height="78"/>
			<polygon class="st11" points="689.5,164.8 694.4,174.6 645.5,199.2 640.6,189.3 			"/>
			<path class="st11" d="M691.9,183.6c7.9,0,14.5-6.5,14.5-14.5c0-7.9-6.5-14.5-14.5-14.5c-8,0-14.5,6.5-14.5,14.5
				C677.5,177.2,683.9,183.6,691.9,183.6L691.9,183.6z"/>
		</g>
		<g>
			<g>
				<path class="st13" d="M306.1,702.4H564c5.5,0,10,4.4,10,10v170.9c0,5.4-4.4,10-10,10H306.1c-5.5,0-10-4.5-10-10V712.4
					C296.1,706.9,300.5,702.4,306.1,702.4L306.1,702.4z"/>
				<path class="st14" d="M307.6,658.2h254.9c6.3,0,11.5,5.2,11.5,11.6v40.1c0,6.3-5.2,11.5-11.5,11.5H307.6
					c-6.3,0-11.5-5.2-11.5-11.5v-40.1C296.1,663.4,301.3,658.2,307.6,658.2L307.6,658.2z"/>
				<path class="st15" d="M329.1,681.5c4.9,0,8.9-4,8.9-8.9c0-4.9-4-8.9-8.9-8.9c-5,0-8.9,4-8.9,8.9
					C320.1,677.4,324.1,681.5,329.1,681.5L329.1,681.5z"/>
				<path class="st15" d="M364.4,681.5c4.9,0,8.9-4,8.9-8.9c0-4.9-4-8.9-8.9-8.9c-4.9,0-8.9,4-8.9,8.9
					C355.4,677.4,359.5,681.5,364.4,681.5L364.4,681.5z"/>
				<path class="st15" d="M399.7,681.5c4.9,0,8.9-4,8.9-8.9c0-4.9-4-8.9-8.9-8.9c-5,0-8.9,4-8.9,8.9
					C390.8,677.4,394.8,681.5,399.7,681.5L399.7,681.5z"/>
				<path class="st15" d="M435,681.5c4.9,0,8.9-4,8.9-8.9c0-4.9-4-8.9-8.9-8.9c-4.9,0-8.9,4-8.9,8.9
					C426.1,677.4,430.1,681.5,435,681.5L435,681.5z"/>
				<path class="st15" d="M470.4,681.5c4.9,0,8.9-4,8.9-8.9c0-4.9-4-8.9-8.9-8.9c-5,0-8.9,4-8.9,8.9
					C461.5,677.4,465.4,681.5,470.4,681.5L470.4,681.5z"/>
				<path class="st15" d="M505.7,681.5c4.9,0,8.9-4,8.9-8.9c0-4.9-4-8.9-8.9-8.9c-4.9,0-8.9,4-8.9,8.9
					C496.8,677.4,500.8,681.5,505.7,681.5L505.7,681.5z"/>
				<path class="st15" d="M541,681.5c5,0,8.9-4,8.9-8.9c0-4.9-4-8.9-8.9-8.9c-4.9,0-8.9,4-8.9,8.9
					C532.1,677.4,536.1,681.5,541,681.5L541,681.5z"/>
				<rect x="321.4" y="750.1" class="st4" width="27.7" height="27.7"/>
				<rect x="321.4" y="796.5" class="st4" width="27.7" height="27.8"/>
				<rect x="371.5" y="750.1" class="st1" width="27.7" height="27.7"/>
				<rect x="371.5" y="796.5" class="st1" width="27.7" height="27.8"/>
				<rect x="421.5" y="750.1" class="st1" width="27.7" height="27.7"/>
				<rect x="421.5" y="796.5" class="st1" width="27.7" height="27.8"/>
				<rect x="471.5" y="750.1" class="st1" width="27.7" height="27.7"/>
				<rect x="471.5" y="796.5" class="st1" width="27.7" height="27.8"/>
				<rect x="521.6" y="750.1" class="st1" width="27.8" height="27.7"/>
				<rect x="521.6" y="796.5" class="st1" width="27.8" height="27.8"/>
				<polygon class="st4" points="475.7,806.3 485.4,819.8 512.7,782.5 485.8,810.6 				"/>
				<rect x="321.4" y="843" class="st4" width="27.7" height="27.7"/>
				<rect x="371.5" y="843" class="st1" width="27.7" height="27.7"/>
				<rect x="421.5" y="843" class="st1" width="27.7" height="27.7"/>
				<rect x="471.5" y="843" class="st1" width="27.7" height="27.7"/>
				<rect x="521.6" y="843" class="st1" width="27.8" height="27.7"/>
			</g>
			<g>
				<path class="st13" d="M329.3,642.4L329.3,642.4c3.6,0,6.7,3,6.7,6.7v18.6c0,3.6-3,6.7-6.7,6.7l0,0c-3.7,0-6.7-3-6.7-6.7V649
					C322.7,645.4,325.6,642.4,329.3,642.4L329.3,642.4z"/>
				<path class="st13" d="M364.6,642.4L364.6,642.4c3.7,0,6.7,3,6.7,6.7v18.6c0,3.6-3,6.7-6.7,6.7l0,0c-3.6,0-6.7-3-6.7-6.7V649
					C358,645.4,361,642.4,364.6,642.4L364.6,642.4z"/>
				<path class="st13" d="M400,642.4L400,642.4c3.6,0,6.7,3,6.7,6.7v18.6c0,3.6-3,6.7-6.7,6.7l0,0c-3.7,0-6.7-3-6.7-6.7V649
					C393.3,645.4,396.3,642.4,400,642.4L400,642.4z"/>
				<path class="st13" d="M435.3,642.4L435.3,642.4c3.7,0,6.7,3,6.7,6.7v18.6c0,3.6-3,6.7-6.7,6.7l0,0c-3.6,0-6.7-3-6.7-6.7V649
					C428.6,645.4,431.7,642.4,435.3,642.4L435.3,642.4z"/>
				<path class="st13" d="M470.7,642.4L470.7,642.4c3.6,0,6.7,3,6.7,6.7v18.6c0,3.6-3,6.7-6.7,6.7l0,0c-3.7,0-6.7-3-6.7-6.7V649
					C464,645.4,467,642.4,470.7,642.4L470.7,642.4z"/>
				<path class="st13" d="M506,642.4L506,642.4c3.7,0,6.7,3,6.7,6.7v18.6c0,3.6-3,6.7-6.7,6.7l0,0c-3.6,0-6.7-3-6.7-6.7V649
					C499.3,645.4,502.3,642.4,506,642.4L506,642.4z"/>
				<path class="st13" d="M541.3,642.4L541.3,642.4c3.6,0,6.7,3,6.7,6.7v18.6c0,3.6-3,6.7-6.7,6.7l0,0c-3.7,0-6.7-3-6.7-6.7V649
					C534.7,645.4,537.6,642.4,541.3,642.4L541.3,642.4z"/>
			</g>
		</g>
		<path class="st2" d="M261.8,75.7h8.4V23.2h-8.4V75.7z M113.3,175.2l-3.2,7.8L73,167.9l3.2-7.8L113.3,175.2z M206.1,86.7l-7.7,3.2
			L183,52.9l7.8-3.2L206.1,86.7z M103.2,206.5l-1.6,8.3l-25.8-5l1.6-8.3L103.2,206.5z M129.5,146.6l-4.6,7.1l-21.9-14.5l4.6-7
			L129.5,146.6z M176.3,101.8l-7,4.7l-14.7-21.8l7-4.7L176.3,101.8z M237,78.1l-8.3,1.7l-5.2-25.7l8.2-1.7L237,78.1z M101.8,74.8
			l-5.9,6l5.5,5.4l5.9-6L101.8,74.8z M150.2,122.3l-5.9,6.1l-37.5-36.8l5.9-6L150.2,122.3z M418.7,175.2l3.2,7.8l37.2-15.1l-3.2-7.8
			L418.7,175.2z M325.9,86.7l7.8,3.2L349,52.9l-7.7-3.2L325.9,86.7z M428.8,206.5l1.6,8.3l25.8-5l-1.5-8.3L428.8,206.5z
			 M402.6,146.6l4.6,7.1l21.9-14.5l-4.6-7L402.6,146.6z M355.8,101.8l6.9,4.7l14.7-21.8l-7-4.7L355.8,101.8z M295,78.1l8.3,1.7
			l5.2-25.7l-8.3-1.7L295,78.1z M430.3,74.8l5.9,6l-5.4,5.4l-5.9-6L430.3,74.8z M261.8,7.9h8.4v7.7h-8.4V7.9z M381.8,122.3l5.9,6.1
			l37.5-36.8l-5.9-6L381.8,122.3z"/>
	</g>
</g>
</svg>
