<?xml version="1.0" encoding="utf-8"?>
<!-- Generator: Adobe Illustrator 19.2.1, SVG Export Plug-In . SVG Version: 6.00 Build 0)  -->
<svg version="1.1" id="Analytics" xmlns="http://www.w3.org/2000/svg" xmlns:xlink="http://www.w3.org/1999/xlink" x="0px" y="0px"
	 viewBox="0 0 1029.3 902.7" style="enable-background:new 0 0 1029.3 902.7;" xml:space="preserve">
<style type="text/css">
	.st0{fill:none;stroke:#D1240D;stroke-width:10;stroke-miterlimit:10;}
	.st1{display:none;}
	.st2{display:inline;fill:#F2F2F2;}
	.st3{opacity:0.4;fill:#D1240D;}
	.st4{fill:#F37700;}
	.st5{fill:#FFC52B;}
	.st6{fill:#002237;}
	.st7{fill:#EFEFEF;}
	.st8{fill:#262626;}
	.st9{fill:#60605F;}
	.st10{opacity:0.2;}
	.st11{opacity:0.3;}
	.st12{fill:#002137;}
	.st13{fill:#FF331B;}
	.st14{fill:#0C0C0C;}
	.st15{fill:#0494A2;}
</style>
<g id="Background">
	<circle id="Background_2" class="st0" cx="496.9" cy="488.6" r="399"/>
</g>
<g id="Analytics_2_" class="st1">
	<path class="st2" d="M384.1,1006.8c-0.7-1.7-1.3-3.4-1.8-5.1c-0.6-1.7-1.2-3.4-1.8-5.1h-18.1l-3.6,10.2H353c1.5-4.2,3-8.1,4.3-11.7
		c1.3-3.6,2.7-7,3.9-10.2c1.3-3.2,2.6-6.3,3.8-9.2c1.3-2.9,2.6-5.8,4-8.7h5.1c1.4,2.9,2.7,5.8,4,8.7c1.3,2.9,2.5,6,3.8,9.2
		c1.3,3.2,2.6,6.6,3.9,10.2c1.3,3.6,2.8,7.5,4.3,11.7H384.1z M378.9,992c-1.2-3.3-2.4-6.6-3.7-9.7c-1.2-3.1-2.5-6.1-3.8-9
		c-1.3,2.9-2.6,5.9-3.8,9c-1.2,3.1-2.4,6.4-3.6,9.7H378.9z"/>
	<path class="st2" d="M423,1006.8c-0.8-1.4-1.8-3-2.9-4.8c-1.1-1.8-2.3-3.6-3.5-5.5c-1.3-1.9-2.6-3.8-3.9-5.8
		c-1.4-2-2.7-3.8-4.1-5.7c-1.3-1.8-2.6-3.5-3.9-5.2s-2.4-3-3.5-4.3v31.2h-5.5v-39.9h4.4c1.8,1.9,3.7,4.2,5.8,6.7
		c2.1,2.6,4.1,5.2,6.1,7.9c2,2.7,3.9,5.4,5.7,8c1.8,2.6,3.3,4.9,4.5,7v-29.5h5.5v39.9H423z"/>
	<path class="st2" d="M464.2,1006.8c-0.7-1.7-1.3-3.4-1.8-5.1c-0.6-1.7-1.2-3.4-1.8-5.1h-18.1l-3.6,10.2h-5.8
		c1.5-4.2,3-8.1,4.3-11.7c1.3-3.6,2.7-7,3.9-10.2c1.3-3.2,2.6-6.3,3.8-9.2c1.3-2.9,2.6-5.8,4-8.7h5.1c1.4,2.9,2.7,5.8,4,8.7
		c1.3,2.9,2.5,6,3.8,9.2c1.3,3.2,2.6,6.6,3.9,10.2c1.3,3.6,2.8,7.5,4.3,11.7H464.2z M459,992c-1.2-3.3-2.4-6.6-3.7-9.7
		c-1.2-3.1-2.5-6.1-3.8-9c-1.3,2.9-2.6,5.9-3.8,9c-1.2,3.1-2.4,6.4-3.6,9.7H459z"/>
	<path class="st2" d="M499.8,1002v4.8h-24v-39.9h5.6v35.1H499.8z"/>
	<path class="st2" d="M508.5,1006.8v-16c-2.7-4.1-5.1-8.2-7.5-12.2c-2.3-4-4.6-7.9-6.6-11.8h6.6c1.5,3.1,3.1,6.3,4.9,9.6
		c1.8,3.2,3.7,6.4,5.6,9.4c1.9-3,3.7-6.1,5.5-9.4c1.8-3.2,3.5-6.4,5-9.6h6.2c-2.1,3.8-4.3,7.7-6.6,11.7c-2.3,4-4.8,8-7.4,12.1v16.1
		H508.5z"/>
	<path class="st2" d="M561.9,966.9v4.8h-12.6v35.1h-5.6v-35.1h-12.6v-4.8H561.9z"/>
	<path class="st2" d="M567.8,966.9h5.6v39.9h-5.6V966.9z"/>
	<path class="st2" d="M600.4,1007.7c-2.8,0-5.4-0.5-7.7-1.4c-2.3-0.9-4.3-2.3-5.9-4c-1.7-1.8-2.9-3.9-3.8-6.5
		c-0.9-2.6-1.4-5.6-1.4-8.9c0-3.3,0.5-6.3,1.5-8.9c1-2.6,2.4-4.8,4.1-6.5c1.7-1.8,3.7-3.1,6-4c2.3-0.9,4.8-1.4,7.4-1.4
		c1.7,0,3.1,0.1,4.5,0.3c1.3,0.2,2.5,0.5,3.5,0.8c1,0.3,1.8,0.6,2.4,0.9c0.6,0.3,1,0.5,1.3,0.7l-1.6,4.6c-0.3-0.2-0.8-0.5-1.5-0.7
		c-0.7-0.3-1.4-0.5-2.2-0.8c-0.8-0.3-1.7-0.5-2.7-0.7c-1-0.2-2-0.3-3-0.3c-2.1,0-4,0.4-5.7,1.1c-1.7,0.7-3.1,1.8-4.3,3.2
		c-1.2,1.4-2.1,3.1-2.7,5c-0.6,2-0.9,4.2-0.9,6.7c0,2.4,0.3,4.5,0.8,6.5c0.6,2,1.4,3.6,2.5,5c1.1,1.4,2.5,2.5,4.2,3.3
		c1.7,0.8,3.6,1.2,5.8,1.2c2.6,0,4.7-0.3,6.4-0.8c1.7-0.5,3-1,3.8-1.4l1.4,4.6c-0.3,0.2-0.8,0.4-1.4,0.7c-0.7,0.3-1.6,0.6-2.6,0.8
		c-1,0.3-2.2,0.5-3.6,0.7C603.5,1007.6,602,1007.7,600.4,1007.7z"/>
	<path class="st2" d="M628.8,1002.8c5.8,0,8.8-2,8.8-6c0-1.2-0.3-2.3-0.8-3.1c-0.5-0.9-1.2-1.6-2.1-2.2c-0.9-0.6-1.9-1.2-3-1.6
		c-1.1-0.5-2.3-0.9-3.6-1.4c-1.5-0.5-2.8-1.1-4.1-1.7c-1.3-0.6-2.4-1.4-3.4-2.2c-1-0.9-1.7-1.9-2.3-3.1c-0.6-1.2-0.8-2.6-0.8-4.3
		c0-3.5,1.2-6.2,3.6-8.2c2.4-2,5.7-2.9,9.8-2.9c2.4,0,4.6,0.3,6.6,0.8c2,0.5,3.4,1.1,4.3,1.7L640,973c-0.8-0.5-2-1-3.6-1.5
		c-1.6-0.5-3.4-0.7-5.6-0.7c-1.1,0-2.1,0.1-3,0.3c-0.9,0.2-1.7,0.6-2.4,1c-0.7,0.5-1.2,1-1.6,1.8c-0.4,0.7-0.6,1.5-0.6,2.5
		c0,1.1,0.2,2,0.6,2.7c0.4,0.7,1,1.4,1.8,1.9c0.8,0.6,1.7,1.1,2.7,1.5c1,0.5,2.1,0.9,3.4,1.4c1.7,0.7,3.3,1.4,4.8,2.1
		c1.4,0.7,2.7,1.5,3.7,2.5c1.1,1,1.9,2.1,2.4,3.4c0.6,1.3,0.9,2.9,0.9,4.8c0,3.5-1.3,6.2-3.8,8.1c-2.6,1.9-6.2,2.8-10.8,2.8
		c-1.6,0-3-0.1-4.3-0.3c-1.3-0.2-2.5-0.5-3.5-0.7c-1-0.3-1.9-0.6-2.7-0.9c-0.7-0.3-1.3-0.6-1.8-0.8l1.7-4.6c0.9,0.5,2.2,1.1,4,1.7
		C624,1002.5,626.2,1002.8,628.8,1002.8z"/>
</g>
<g id="Analytics_1_">
	<g id="Point_Mind">
		<polygon class="st3" points="63.2,785.3 56,784.5 86.9,536.3 244.7,474.1 247.4,480.8 93.5,541.4 		"/>
		<polygon class="st3" points="974.7,387.5 976.7,394.4 735.6,460.9 617.7,338.9 622.9,333.9 737.8,452.8 		"/>
		<polygon class="st3" points="314.7,37.8 307.6,38.7 338.5,279.3 496.3,339.6 498.9,333.1 345.1,274.4 		"/>
		<g>
			<g>
				<circle class="st4" cx="59.6" cy="784.9" r="51.8"/>
				<circle class="st5" cx="59.6" cy="784.9" r="30.6"/>
			</g>
			<g>
				<circle class="st4" cx="975.5" cy="391.4" r="51.8"/>
				<circle class="st5" cx="975.5" cy="391.4" r="30.6"/>
			</g>
			<g>
				<circle class="st4" cx="309.7" cy="37.8" r="32.8"/>
				<circle class="st5" cx="309.7" cy="37.8" r="19.4"/>
			</g>
		</g>
	</g>
	<g id="Wall">
		<path class="st6" d="M861.7,255.3c0,17.8-14.4,32.2-32.2,32.2H164.3c-17.8,0-32.2-14.4-32.2-32.2v-10.7
			c0-17.8,14.4-32.2,32.2-32.2h665.2c17.8,0,32.2,14.4,32.2,32.2V255.3z"/>
		<path class="st6" d="M861.7,712.6c0,12.4-14.4,22.4-32.2,22.4H164.3c-17.8,0-32.2-10-32.2-22.4v-7.5c0-12.4,14.4-22.4,32.2-22.4
			h665.2c17.8,0,32.2,10,32.2,22.4V712.6z"/>
		<rect x="150.8" y="271.7" class="st7" width="692" height="432.9"/>
		<g>
			<path class="st8" d="M421.6,855.3c-4.2,4.8-11.6,5.3-16.4,1.1l0,0c-4.8-4.2-5.3-11.6-1.1-16.4l76-86.8c4.2-4.8,11.6-5.3,16.4-1.1
				l0,0c4.8,4.2,5.3,11.6,1.1,16.4L421.6,855.3z"/>
			<path class="st8" d="M561.9,855.3c4.2,4.8,11.6,5.3,16.4,1.1l0,0c4.8-4.2,5.3-11.6,1.1-16.4l-76-86.8c-4.2-4.8-11.6-5.3-16.4-1.1
				l0,0c-4.8,4.2-5.3,11.6-1.1,16.4L561.9,855.3z"/>
			<path class="st9" d="M506.3,862c0,6.4-5.2,11.6-11.6,11.6l0,0c-6.4,0-11.6-5.2-11.6-11.6V746.6c0-6.4,5.2-11.6,11.6-11.6l0,0
				c6.4,0,11.6,5.2,11.6,11.6V862z"/>
		</g>
		<g>
			<rect x="150.8" y="273.7" class="st10" width="692" height="6.5"/>
			<rect x="150.8" y="694.8" class="st10" width="692" height="12.3"/>
		</g>
		<path class="st11" d="M134.1,233.4h725.5c-4.5-12.3-16.3-21-30.2-21H164.3C150.4,212.4,138.6,221.1,134.1,233.4z"/>
		<g>
			<g>
				<rect x="199.3" y="344.6" class="st12" width="93.6" height="93.6"/>
				<rect x="309.7" y="344.6" class="st13" width="93.6" height="93.6"/>
				<rect x="199.3" y="462.2" class="st14" width="93.6" height="93.6"/>
				<rect x="309.7" y="462.2" class="st15" width="93.6" height="93.6"/>
			</g>
			<polygon class="st15" points="379.4,518.2 374.3,513.2 429.4,458.1 663.4,458.1 663.4,465.3 432.4,465.3 			"/>
			<g>
				<polygon class="st12" points="248.6,379.6 243.5,374.5 298.6,319.4 532.6,319.4 532.6,326.6 301.6,326.6 				"/>
				<polygon class="st13" points="379.4,421.5 374.3,416.4 429.4,361.3 663.4,361.3 663.4,368.5 432.4,368.5 				"/>
				<polygon class="st14" points="261.7,538.9 256.6,544 311.7,599 545.7,599 545.7,591.8 314.7,591.8 				"/>
				<circle class="st12" cx="591.1" cy="325.2" r="19.4"/>
				<circle class="st13" cx="702.3" cy="364" r="19.4"/>
				<circle class="st15" cx="695.1" cy="458.1" r="19.4"/>
				<circle class="st14" cx="575.1" cy="599" r="19.4"/>
				<g>
					<path d="M641.4,305.3v2.5l-12.2,25.6h-3.9l12.2-24.8v-0.1h-13.7v-3.2H641.4z"/>
					<path d="M645,326.3c0-3.5,2.1-6,5.6-7.5l0-0.1c-3.1-1.5-4.5-3.9-4.5-6.3c0-4.4,3.8-7.5,8.7-7.5c5.4,0,8.2,3.4,8.2,6.9
						c0,2.4-1.2,4.9-4.6,6.6v0.1c3.5,1.4,5.7,3.8,5.7,7.3c0,4.9-4.2,8.2-9.5,8.2C648.6,333.9,645,330.4,645,326.3z M660.1,326.1
						c0-3.4-2.4-5.1-6.2-6.1c-3.3,1-5.1,3.1-5.1,5.8c-0.1,2.9,2,5.4,5.6,5.4C657.9,331.1,660.1,329,660.1,326.1z M649.7,312.1
						c0,2.8,2.1,4.3,5.4,5.2c2.4-0.8,4.3-2.5,4.3-5.1c0-2.2-1.3-4.6-4.8-4.6C651.4,307.6,649.7,309.7,649.7,312.1z"/>
					<path d="M680.2,313.2c0,5.9-3.1,8.9-6.7,8.9c-3.5,0-6.5-2.8-6.6-8.5c0-5.6,3.1-8.8,6.8-8.8
						C677.6,304.9,680.2,307.9,680.2,313.2z M669.9,313.5c-0.1,3.6,1.3,6.3,3.6,6.3c2.5,0,3.6-2.7,3.6-6.4c0-3.4-1-6.3-3.6-6.3
						C671.2,307.2,669.9,310,669.9,313.5z M673.2,333.9l16.5-29h2.4l-16.5,29H673.2z M698.5,324.9c0,5.9-3.1,8.9-6.7,8.9
						c-3.5,0-6.5-2.8-6.6-8.4c0-5.7,3.1-8.8,6.8-8.8C695.9,316.5,698.5,319.5,698.5,324.9z M688.2,325.1c0,3.6,1.3,6.3,3.7,6.3
						c2.5,0,3.6-2.7,3.6-6.4c0-3.4-1-6.3-3.6-6.3C689.5,318.8,688.2,321.6,688.2,325.1z"/>
				</g>
				<g>
					<path d="M735,376.9c0.8,0.1,1.8,0,3.1-0.1c2.2-0.3,4.3-1.2,5.9-2.7c1.9-1.7,3.2-4.1,3.7-7.5h-0.1c-1.6,1.9-3.8,3-6.6,3
						c-5.1,0-8.3-3.8-8.3-8.6c0-5.3,3.8-10,9.6-10c5.7,0,9.3,4.7,9.3,11.8c0,6.2-2.1,10.5-4.8,13.2c-2.2,2.1-5.1,3.4-8.2,3.8
						c-1.4,0.2-2.6,0.3-3.5,0.2V376.9z M736.4,360.7c0,3.5,2.1,6,5.4,6c2.5,0,4.5-1.3,5.5-2.9c0.2-0.3,0.3-0.8,0.3-1.4
						c0-4.8-1.8-8.5-5.7-8.5C738.7,353.9,736.4,356.8,736.4,360.7z"/>
					<path d="M773.6,365.2c0,9.5-3.5,14.8-9.8,14.8c-5.5,0-9.2-5.1-9.3-14.4c0-9.4,4.1-14.6,9.8-14.6
						C770.3,351,773.6,356.3,773.6,365.2z M758.4,365.7c0,7.3,2.2,11.4,5.7,11.4c3.9,0,5.7-4.5,5.7-11.7c0-6.9-1.8-11.4-5.7-11.4
						C760.8,353.9,758.4,358,758.4,365.7z"/>
					<path d="M789.8,359.4c0,5.9-3.1,8.9-6.7,8.9c-3.5,0-6.5-2.8-6.6-8.5c0-5.6,3.1-8.8,6.8-8.8C787.2,351,789.8,354,789.8,359.4z
						 M779.5,359.6c-0.1,3.6,1.3,6.3,3.6,6.3c2.5,0,3.6-2.7,3.6-6.4c0-3.4-1-6.3-3.6-6.3C780.8,353.3,779.5,356.1,779.5,359.6z
						 M782.8,380l16.5-29h2.4l-16.5,29H782.8z M808.1,371c0,5.9-3.1,8.9-6.7,8.9c-3.5,0-6.5-2.8-6.6-8.4c0-5.7,3.1-8.8,6.8-8.8
						C805.5,362.6,808.1,365.7,808.1,371z M797.8,371.3c0,3.6,1.3,6.3,3.7,6.3c2.5,0,3.6-2.7,3.6-6.4c0-3.4-1-6.3-3.6-6.3
						C799.1,364.9,797.8,367.7,797.8,371.3z"/>
				</g>
				<g>
					<path d="M747,449.4v2.5l-12.2,25.6h-3.9l12.2-24.8v-0.1h-13.7v-3.2H747z"/>
					<path d="M769.6,463.2c0,9.5-3.5,14.8-9.8,14.8c-5.5,0-9.2-5.1-9.3-14.4c0-9.4,4.1-14.6,9.8-14.6
						C766.3,448.9,769.6,454.2,769.6,463.2z M754.4,463.6c0,7.3,2.2,11.4,5.7,11.4c3.9,0,5.7-4.5,5.7-11.7c0-6.9-1.8-11.4-5.7-11.4
						C756.8,451.9,754.4,455.9,754.4,463.6z"/>
					<path d="M792.7,477.5c-0.8-0.8-1.6-1.6-2.7-2.9c-2.5,2.3-5.3,3.3-8.5,3.3c-5.7,0-8.9-3.8-8.9-8.2c0-4,2.4-6.7,5.7-8.5v-0.1
						c-1.5-1.9-2.4-4-2.4-6.1c0-3.5,2.5-7.2,7.4-7.2c3.6,0,6.4,2.4,6.4,6.2c0,3.1-1.8,5.5-6.4,7.8v0.1c2.5,2.9,5.2,6,7.1,8.1
						c1.3-2,2.2-4.8,2.8-8.5h3.5c-0.8,4.6-2,8.2-4.2,10.8c1.6,1.6,3.1,3.3,4.8,5.1H792.7z M788.1,472.5c-1.7-1.9-5-5.4-8.2-9.2
						c-1.6,1-3.8,2.9-3.8,5.9c0,3.3,2.5,5.9,6,5.9C784.6,475.1,786.7,474,788.1,472.5z M779.3,454.7c0,2.1,1,3.7,2.2,5.2
						c2.9-1.7,4.8-3.2,4.8-5.7c0-1.8-1-3.8-3.4-3.8C780.5,450.5,779.3,452.5,779.3,454.7z"/>
				</g>
				<g>
					<path d="M608.5,606.7c0-3.5,2.1-6,5.6-7.5l0-0.1c-3.1-1.5-4.5-3.9-4.5-6.3c0-4.4,3.8-7.5,8.7-7.5c5.4,0,8.2,3.4,8.2,6.9
						c0,2.4-1.2,4.9-4.6,6.6v0.1c3.5,1.4,5.7,3.8,5.7,7.3c0,4.9-4.2,8.2-9.5,8.2C612,614.3,608.5,610.8,608.5,606.7z M623.6,606.5
						c0-3.4-2.4-5.1-6.2-6.1c-3.3,1-5.1,3.1-5.1,5.8c-0.1,2.9,2,5.4,5.6,5.4C621.4,611.5,623.6,609.4,623.6,606.5z M613.1,592.5
						c0,2.8,2.1,4.3,5.4,5.2c2.4-0.8,4.3-2.5,4.3-5.1c0-2.2-1.3-4.6-4.8-4.6C614.9,588,613.1,590.1,613.1,592.5z"/>
					<path d="M633.2,611.1c0.8,0.1,1.8,0,3.1-0.1c2.2-0.3,4.3-1.2,5.9-2.7c1.9-1.7,3.2-4.1,3.7-7.5h-0.1c-1.6,1.9-3.8,3-6.6,3
						c-5.1,0-8.3-3.8-8.3-8.6c0-5.3,3.8-10,9.6-10c5.7,0,9.3,4.7,9.3,11.8c0,6.2-2.1,10.5-4.8,13.2c-2.2,2.1-5.1,3.4-8.2,3.8
						c-1.4,0.2-2.6,0.3-3.5,0.2V611.1z M634.6,595c0,3.5,2.1,6,5.4,6c2.5,0,4.5-1.3,5.5-2.9c0.2-0.3,0.3-0.8,0.3-1.4
						c0-4.8-1.8-8.5-5.7-8.5C636.8,588.2,634.6,591,634.6,595z"/>
					<path d="M665.8,593.6c0,5.9-3.1,8.9-6.7,8.9c-3.5,0-6.5-2.8-6.6-8.5c0-5.6,3.1-8.8,6.8-8.8
						C663.2,585.3,665.8,588.3,665.8,593.6z M655.5,593.9c-0.1,3.6,1.3,6.3,3.6,6.3c2.5,0,3.6-2.7,3.6-6.4c0-3.4-1-6.3-3.6-6.3
						C656.8,587.6,655.5,590.4,655.5,593.9z M658.8,614.3l16.5-29h2.4l-16.5,29H658.8z M684.1,605.3c0,5.9-3.1,8.9-6.7,8.9
						c-3.5,0-6.5-2.8-6.6-8.4c0-5.7,3.1-8.8,6.8-8.8C681.5,596.9,684.1,599.9,684.1,605.3z M673.8,605.5c0,3.6,1.3,6.3,3.7,6.3
						c2.5,0,3.6-2.7,3.6-6.4c0-3.4-1-6.3-3.6-6.3C675.1,599.2,673.8,602,673.8,605.5z"/>
				</g>
			</g>
		</g>
	</g>
</g>
</svg>
