<?xml version="1.0" encoding="utf-8"?>
<!-- Generator: Adobe Illustrator 19.2.1, SVG Export Plug-In . SVG Version: 6.00 Build 0)  -->
<svg version="1.1" xmlns="http://www.w3.org/2000/svg" xmlns:xlink="http://www.w3.org/1999/xlink" x="0px" y="0px"
	 viewBox="0 0 1029.3 902.7" style="enable-background:new 0 0 1029.3 902.7;" xml:space="preserve">
<style type="text/css">
	.st0{fill:none;stroke:#D1240D;stroke-width:10;stroke-miterlimit:10;}
	.st1{fill:#FFC010;}
	.st2{fill:none;}
	.st3{fill:#F6F6F6;}
	.st4{fill:#DADADA;}
	.st5{fill:#1D1D1B;}
	.st6{fill:#EF037F;}
	.st7{fill:#9D9D9C;}
	.st8{fill:#1C0336;}
	.st9{fill:#A07648;}
	.st10{fill:#BC8C58;}
	.st11{fill:#CA9E67;}
	.st12{fill:#F9F09B;}
	.st13{fill:#352F2D;}
	.st14{fill:#88BFB7;}
	.st15{fill:#CCFEF8;}
	.st16{fill:#D80B7F;}
	.st17{fill:#F0037F;}
	.st18{fill:#E2872A;}
	.st19{fill:#D80B7E;}
	.st20{fill:#ED37A4;}
</style>
<g id="Analytics">
	<g id="Background">
		<circle id="Background_2" class="st0" cx="496.9" cy="488.6" r="399"/>
	</g>
</g>
<g id="Слой_2">
	<g id="Product_List">
		<g id="List">
			<path class="st1" d="M809.7,783.4c0,15.2-11.1,27.6-24.9,27.6h-473c-13.7,0-24.9-12.3-24.9-27.6V122.2
				c0-15.2,11.1-27.6,24.9-27.6h473c13.7,0,24.9,12.3,24.9,27.6V783.4z"/>
			<polygon class="st2" points="686.3,169.5 400.9,169.5 400.9,108.1 393.8,108.1 393.8,187.3 694.8,187.3 694.8,108.1 686.3,108.1 
							"/>
			<path class="st2" d="M540.2,42.5C506,41.1,495.5,63,492.4,74.8H583C579.8,63.7,569.9,43.8,540.2,42.5z"/>
			<g>
				<polygon class="st3" points="343.9,147.7 343.9,735.1 757.3,735.1 757.3,256.1 595.6,147.7 				"/>
				<path class="st4" d="M757.3,256.1L595.6,147.7v108.4c0,0,31.4-10.4,74.4-10.4C721.2,245.7,757.3,256.1,757.3,256.1z"/>
			</g>
			<path class="st5" d="M686.3,98.8v-24h-92.9C590.2,62,578.9,34,540.6,32.4c-43.3-1.8-55.3,28.7-58.5,42.4h-81.2v24h-16.5v97.9
				h319.8V98.8H686.3z M638.4,108.6c7.4,0,13.5,6,13.5,13.5c0,7.4-6,13.5-13.5,13.5c-7.4,0-13.5-6-13.5-13.5
				C624.9,114.6,630.9,108.6,638.4,108.6z M540.2,42.5c29.7,1.3,39.6,21.2,42.8,32.2h-90.6C495.5,63,506,41.1,540.2,42.5z
				 M443.7,108.6c7.4,0,13.5,6,13.5,13.5c0,7.4-6,13.5-13.5,13.5c-7.4,0-13.5-6-13.5-13.5C430.2,114.6,436.2,108.6,443.7,108.6z
				 M694.8,187.3H393.8v-79.1h7.1v61.4h285.4v-61.4h8.5V187.3z"/>
			<g>
				<rect x="451.3" y="196.6" class="st6" width="144.3" height="18.9"/>
				<rect x="451.3" y="222.8" class="st6" width="144.3" height="8.1"/>
				<rect x="451.3" y="236" class="st6" width="144.3" height="8.1"/>
			</g>
			<circle class="st7" cx="415.4" cy="314" r="31"/>
			<circle class="st7" cx="415.4" cy="415.1" r="31"/>
			<circle class="st7" cx="415.4" cy="516.2" r="31"/>
			<circle class="st7" cx="415.4" cy="630" r="31"/>
			<g>
				<rect x="472.8" y="290.6" class="st6" width="231.4" height="30.3"/>
				<rect x="472.8" y="328.5" class="st6" width="231.4" height="10.1"/>
			</g>
			<g>
				<rect x="472.8" y="391.1" class="st6" width="231.4" height="30.3"/>
				<rect x="472.8" y="429" class="st6" width="231.4" height="10.1"/>
			</g>
			<g>
				<rect x="472.8" y="503.6" class="st6" width="231.4" height="30.3"/>
				<rect x="472.8" y="541.5" class="st6" width="231.4" height="10.1"/>
			</g>
			<g>
				<rect x="472.8" y="606" class="st6" width="231.4" height="30.3"/>
				<rect x="472.8" y="643.9" class="st6" width="231.4" height="10.1"/>
			</g>
			<path class="st8" d="M477.9,258.1c-4-4.8-13.2-3.4-17.2-0.1L414.8,296l-19.2-18.5c-4.4-4.3-11.3-4.3-15.4-0.1
				c-4.1,4.2-3.8,11.1,0.6,15.4l26.6,25.7c3.8,3.7,9.5,4.2,13.6,1.6c0.3-0.2,0.7-0.4,1-0.7l53.1-44
				C479,272.1,481.8,262.9,477.9,258.1z"/>
			<path class="st8" d="M477.9,360.8c-4-4.8-13.2-3.4-17.2-0.1l-45.9,38.1l-19.2-18.5c-4.4-4.3-11.3-4.3-15.4-0.1
				c-4.1,4.2-3.8,11.1,0.6,15.4l26.6,25.7c3.8,3.7,9.5,4.2,13.6,1.6c0.3-0.2,0.7-0.4,1-0.7l53.1-44
				C479,374.8,481.8,365.6,477.9,360.8z"/>
		</g>
		<g id="Box">
			<g>
				<polygon class="st9" points="197.6,588 360.9,634.7 202.3,793.2 43.8,634.7 				"/>
				<polygon class="st10" points="202.9,885 43.8,827.7 43.8,634.7 202.9,692 				"/>
				<polygon class="st11" points="202.9,885 361.9,827.7 361.9,634.7 202.9,692 				"/>
				<polygon class="st12" points="306.3,826.1 305.8,654.9 239.2,634.8 296.3,616.2 262.4,606.5 204.2,624.3 141,605.2 108,615.2 
					169.5,634.8 102.1,655.4 102.1,826.1 137.1,838.8 137.1,668.1 204.7,646.1 271.3,667.3 271.3,838.8 				"/>
			</g>
			<g>
				<polygon class="st9" points="178.9,385.8 342.2,432.5 183.6,591 25.1,432.5 				"/>
				<polygon class="st10" points="184.2,682.7 25.1,625.5 25.1,432.5 184.2,489.7 				"/>
				<polygon class="st11" points="184.2,682.7 343.2,625.5 343.2,432.5 184.2,489.7 				"/>
				<polygon class="st12" points="287.6,623.9 287.1,452.7 220.5,432.6 277.6,414 243.7,404.3 185.5,422.1 122.3,403 89.3,413 
					150.8,432.6 83.4,453.2 83.4,623.9 118.4,636.6 118.4,465.9 186,443.9 252.6,465.1 252.6,636.6 				"/>
			</g>
		</g>
		<g id="Calculator">
			<path class="st13" d="M968.6,870c0,8-6.5,14.4-14.4,14.4H665.3c-8,0-14.4-6.5-14.4-14.4V485.3c0-8,6.5-14.4,14.4-14.4h288.8
				c8,0,14.4,6.5,14.4,14.4V870z"/>
			<path class="st14" d="M927.7,500.7h-13.5h-17.6h-15.8h-31h-158c-8,0-14.4,6.5-14.4,14.4v65.8c0,8,6.5,14.4,14.4,14.4h85.9h31.7
				h118.3c8,0,14.4-6.5,14.4-14.4v-65.8C942.2,507.2,935.7,500.7,927.7,500.7z"/>
			<path class="st15" d="M880.8,500.7h-31l-70.3,91.5c-0.8,1-1.3,2-1.8,3.1h31.7l69.1-89.9C879.7,504,880.4,502.4,880.8,500.7z"/>
			<path class="st15" d="M861.7,557.5c3.1,2.3,7.4,1.8,9.8-1.3l42.7-55.5h-17.6l-36.1,47C858.1,550.8,858.7,555.2,861.7,557.5z"/>
			<path class="st16" d="M941.8,838.1c0,8-6.5,14.4-14.4,14.4h-36.1c-8,0-14.4-6.5-14.4-14.4v-97.9c0-8,6.5-14.4,14.4-14.4h36.1
				c8,0,14.4,6.5,14.4,14.4V838.1z"/>
			<path class="st4" d="M736.3,842.5c0,5.5-4.5,10-10,10H688c-5.5,0-10-4.5-10-10v-38.3c0-5.5,4.5-10,10-10h38.3c5.5,0,10,4.5,10,10
				V842.5z"/>
			<path class="st4" d="M801.9,842.5c0,5.5-4.5,10-10,10h-38.3c-5.5,0-10-4.5-10-10v-38.3c0-5.5,4.5-10,10-10h38.3
				c5.5,0,10,4.5,10,10V842.5z"/>
			<path class="st4" d="M869.3,842.5c0,5.5-4.5,10-10,10H821c-5.5,0-10-4.5-10-10v-38.3c0-5.5,4.5-10,10-10h38.3c5.5,0,10,4.5,10,10
				V842.5z"/>
			<path class="st4" d="M736.3,774.1c0,5.5-4.5,10-10,10H688c-5.5,0-10-4.5-10-10v-38.3c0-5.5,4.5-10,10-10h38.3c5.5,0,10,4.5,10,10
				V774.1z"/>
			<path class="st4" d="M801.9,774.1c0,5.5-4.5,10-10,10h-38.3c-5.5,0-10-4.5-10-10v-38.3c0-5.5,4.5-10,10-10h38.3
				c5.5,0,10,4.5,10,10V774.1z"/>
			<path class="st4" d="M869.3,774.1c0,5.5-4.5,10-10,10H821c-5.5,0-10-4.5-10-10v-38.3c0-5.5,4.5-10,10-10h38.3c5.5,0,10,4.5,10,10
				V774.1z"/>
			<path class="st4" d="M735.4,705.5c0,5.5-4.5,10-10,10h-38.3c-5.5,0-10-4.5-10-10v-38.3c0-5.5,4.5-10,10-10h38.3
				c5.5,0,10,4.5,10,10V705.5z"/>
			<path class="st4" d="M801.1,705.5c0,5.5-4.5,10-10,10h-38.3c-5.5,0-10-4.5-10-10v-38.3c0-5.5,4.5-10,10-10H791
				c5.5,0,10,4.5,10,10V705.5z"/>
			<path class="st4" d="M868.5,705.5c0,5.5-4.5,10-10,10h-38.3c-5.5,0-10-4.5-10-10v-38.3c0-5.5,4.5-10,10-10h38.3
				c5.5,0,10,4.5,10,10V705.5z"/>
			<path class="st17" d="M941.8,671.6c0-8-6.5-14.4-14.4-14.4h-36.1c-8,0-14.4,6.5-14.4,14.4v29.5c0,8,6.5,14.4,14.4,14.4h36.1
				c8,0,14.4-6.5,14.4-14.4V671.6z"/>
			<path class="st1" d="M868.5,627.1c0,8-6.5,14.4-14.4,14.4H691.5c-8,0-14.4-6.5-14.4-14.4v-0.4c0-8,6.5-14.4,14.4-14.4H854
				c8,0,14.4,6.5,14.4,14.4V627.1z"/>
			<path class="st18" d="M941.8,628.1c0,8-6.5,14.4-14.4,14.4h-32c-8,0-14.4-6.5-14.4-14.4v-1.4c0-8,6.5-14.4,14.4-14.4h32
				c8,0,14.4,6.5,14.4,14.4V628.1z"/>
		</g>
		<g id="Pen">
			<path class="st13" d="M230.9,218.5c-8.5,3.7-18.4-0.3-22.1-8.8l-17.5-40.9c-3.7-8.5,0.3-18.4,8.8-22.1l10.6-4.5
				c8.5-3.7,18.4,0.3,22.1,8.8l17.5,40.9c3.7,8.5-0.3,18.4-8.8,22.1L230.9,218.5z"/>
			<path class="st19" d="M401.4,527.4c-0.1-1.8-0.5-3.7-1.3-5.5L273.4,225.8l-7.4-17.4l-6.6-15.4c-0.1-0.3-0.3-0.6-0.4-0.9
				c-3.9-7.9-13.4-11.5-21.6-7.9l-25.1,10.7c-8.5,3.7-12.5,13.5-8.8,22.1l6.6,15.4l7.4,17.4l126.7,296.1c0.8,1.9,1.9,3.5,3.3,5
				c0.5,0.7,1,1.3,1.5,2c13.2,16.5,35.9,23.1,40.4,21.2C394.9,571.6,405.8,549.1,401.4,527.4z"/>
			<path class="st13" d="M398.2,592.1c-2.8,1.2-6.1-0.1-7.4-2.9l-11.4-26.7c-1.2-2.8,0.1-6.1,2.9-7.4l0,0c2.8-1.2,6.1,0.1,7.4,2.9
				l11.4,26.7C402.3,587.6,401,590.9,398.2,592.1L398.2,592.1z"/>
			<path class="st20" d="M389.3,574c5.7-2.4,16.6-24.9,12.2-46.6c-0.1-1.8-0.5-3.7-1.3-5.5L273.4,225.8l-7.4-17.4l-6.6-15.4
				c-0.1-0.3-0.3-0.6-0.4-0.9l89.9,360.7C362.1,569.3,384.8,575.9,389.3,574z"/>
			
				<rect x="211.2" y="219.6" transform="matrix(0.9194 -0.3933 0.3933 0.9194 -70.6238 113.5304)" class="st13" width="60.9" height="18.9"/>
			<path class="st13" d="M290.1,324.8c-3.5,1.5-7.5-0.1-9-3.6l-48.2-112.7c-1.5-3.5,0.1-7.5,3.6-9l0,0c3.5-1.5,7.5,0.1,9,3.6
				l48.2,112.7C295.3,319.3,293.6,323.3,290.1,324.8L290.1,324.8z"/>
		</g>
	</g>
</g>
</svg>
