<?xml version="1.0" encoding="utf-8"?>
<!-- Generator: Adobe Illustrator 19.2.1, SVG Export Plug-In . SVG Version: 6.00 Build 0)  -->
<svg version="1.1" id="Слой_1" xmlns="http://www.w3.org/2000/svg" xmlns:xlink="http://www.w3.org/1999/xlink" x="0px" y="0px"
	 viewBox="0 0 1029.3 902.7" style="enable-background:new 0 0 1029.3 902.7;" xml:space="preserve">
<style type="text/css">
	.st0{fill:none;stroke:#D1240D;stroke-width:10;stroke-miterlimit:10;}
	.st1{fill:#F1F2F2;}
	.st2{fill:#A7A9AC;}
	.st3{fill:#4F5052;}
	.st4{fill:#F05161;}
	.st5{opacity:0.2;}
	.st6{opacity:0.1;fill:#231F20;}
	.st7{fill:#E9BF7D;}
	.st8{fill:#3187C8;}
	.st9{fill:#FFD191;}
	.st10{opacity:0.2;fill:#231F20;}
	.st11{fill:#E3DEDF;}
	.st12{fill:#58595B;}
	.st13{fill:#FFFFFF;}
	.st14{fill:#EFB742;}
	.st15{fill:#ECF0F1;}
	.st16{fill:#2C3E50;}
	.st17{fill:#95A5A6;}
	.st18{fill:#F1C40F;}
	.st19{fill:#16A085;}
	.st20{fill:#34495E;}
	.st21{fill:#BCBEC0;}
	.st22{fill:#3C5865;}
</style>
<g id="Analytics">
	<g id="Background">
		<circle id="Background_2" class="st0" cx="496.9" cy="488.6" r="399"/>
	</g>
</g>
<g id="Слой_2">
	<g>
		<g>
			<rect x="141.3" y="248.4" class="st1" width="40.4" height="83.5"/>
			<rect x="64.6" y="199.8" class="st2" width="193.9" height="69.4"/>
			<circle class="st3" cx="161.5" cy="234.5" r="44.1"/>
			<circle class="st2" cx="161.5" cy="234.5" r="27.1"/>
			<circle class="st1" cx="161.5" cy="234.5" r="18.1"/>
			<path class="st3" d="M161.5,125.4c-60.3,0-109.1,48.9-109.1,109.1s48.9,109.1,109.1,109.1c60.3,0,109.1-48.9,109.1-109.1
				S221.8,125.4,161.5,125.4z M161.5,324.3c-49.6,0-89.7-40.2-89.7-89.7s40.2-89.7,89.7-89.7c49.6,0,89.7,40.2,89.7,89.7
				S211.1,324.3,161.5,324.3z"/>
			<g>
				<path class="st1" d="M75.2,234.5c0-23,9-44,23.8-59.4l-17.7-17.7c-19.2,20-31.1,47.2-31.1,77.1c0,42.1,23.4,78.7,57.8,97.7
					l18.7-18.7C96.3,300.1,75.2,269.8,75.2,234.5z"/>
				<path class="st1" d="M241.8,157.4l-17.7,17.7c14.7,15.5,23.8,36.4,23.8,59.4c0,35.3-21.2,65.6-51.5,79l18.7,18.7
					c34.5-18.9,57.8-55.6,57.8-97.7C272.9,204.6,261,177.4,241.8,157.4z"/>
			</g>
			<circle class="st4" cx="213" cy="212.5" r="5.1"/>
			<circle class="st1" cx="231.8" cy="212.5" r="5.1"/>
			<circle class="st3" cx="223.2" cy="234.5" r="5.1"/>
		</g>
		<g>
			<g>
				<rect x="897.2" y="476" class="st1" width="23.9" height="20.6"/>
				
					<rect x="861.8" y="490.7" transform="matrix(0.7071 -0.7071 0.7071 0.7071 -98.3527 764.5577)" class="st1" width="23.9" height="20.6"/>
				
					<rect x="847.1" y="526.1" transform="matrix(6.123234e-017 -1 1 6.123234e-017 322.5861 1395.5024)" class="st1" width="23.9" height="20.6"/>
				
					<rect x="861.8" y="561.6" transform="matrix(-0.7071 -0.7071 0.7071 -0.7071 1087.1488 1594.1403)" class="st1" width="23.9" height="20.6"/>
				
					<rect x="897.2" y="576.3" transform="matrix(-1 -1.224647e-016 1.224647e-016 -1 1818.3746 1173.2024)" class="st1" width="23.9" height="20.6"/>
				
					<rect x="932.7" y="561.6" transform="matrix(-0.7071 0.7071 -0.7071 -0.7071 2017.0049 308.3247)" class="st1" width="23.9" height="20.6"/>
				
					<rect x="947.4" y="526.1" transform="matrix(-1.836970e-016 1 -1 -1.836970e-016 1495.7876 -422.8712)" class="st1" width="23.9" height="20.6"/>
				
					<rect x="932.7" y="490.7" transform="matrix(0.7071 0.7071 -0.7071 0.7071 630.9716 -521.2332)" class="st1" width="23.9" height="20.6"/>
			</g>
			<path class="st5" d="M960.8,524.5h-2.9c-1.2-5-3.2-9.7-5.8-14l2-2c-4.3-6.8-10.1-12.6-16.9-16.9l-2,2c-4.3-2.6-9-4.6-14-5.8v-2.9
				c-3.8-0.9-7.9-1.4-12-1.4c-4.1,0-8.1,0.5-12,1.4v2.9c-5,1.2-9.7,3.2-14,5.8l-2-2c-6.8,4.3-12.6,10.1-16.9,16.9l2,2
				c-2.6,4.3-4.6,9-5.8,14h-2.9c-0.9,3.8-1.4,7.9-1.4,12c0,4.1,0.5,8.1,1.4,12h2.9c1.2,5,3.2,9.7,5.8,14l-2,2
				c4.3,6.8,10.1,12.6,16.9,16.9l2-2c4.3,2.6,9,4.6,14,5.8v2.9c3.8,0.9,7.9,1.4,12,1.4c4.1,0,8.1-0.5,12-1.4v-2.9
				c5-1.2,9.7-3.2,14-5.8l2,2c6.8-4.3,12.6-10.1,16.9-16.9l-2-2c2.6-4.3,4.6-9,5.8-14h2.9c0.9-3.8,1.4-7.9,1.4-12
				C962.1,532.3,961.7,528.3,960.8,524.5z M909.2,571.9c-19.6,0-35.5-15.9-35.5-35.5c0-19.6,15.9-35.5,35.5-35.5
				c19.6,0,35.5,15.9,35.5,35.5C944.6,556,928.8,571.9,909.2,571.9z"/>
			<path class="st1" d="M909.2,486.3c-27.7,0-50.1,22.4-50.1,50.1c0,27.7,22.4,50.1,50.1,50.1c27.7,0,50.1-22.4,50.1-50.1
				C959.3,508.8,936.9,486.3,909.2,486.3z M909.2,567.5c-17.2,0-31.1-13.9-31.1-31.1c0-17.2,13.9-31.1,31.1-31.1
				c17.2,0,31.1,13.9,31.1,31.1C940.2,553.6,926.3,567.5,909.2,567.5z"/>
			<path class="st6" d="M909.2,501c-19.6,0-35.5,15.9-35.5,35.5c0,19.6,15.9,35.5,35.5,35.5c19.6,0,35.5-15.9,35.5-35.5
				C944.6,516.9,928.8,501,909.2,501z M909.2,567.5c-17.2,0-31.1-13.9-31.1-31.1c0-17.2,13.9-31.1,31.1-31.1
				c17.2,0,31.1,13.9,31.1,31.1C940.2,553.6,926.3,567.5,909.2,567.5z"/>
		</g>
		<g>
			<rect x="427.1" y="347.2" class="st7" width="173.2" height="265.9"/>
			<path class="st1" d="M837.3,583.3c-16.5-23.7-237.1-94.8-237.1-94.8l-0.2,0c0.1,1.5,0.2,3.1,0.2,4.6c0,44.1-38.8,79.9-86.6,79.9
				c-47.8,0-86.6-35.8-86.6-79.9c0-1.6,0.1-3.1,0.2-4.6l-0.2,0c0,0-220.6,71.1-237.1,94.8c-14.8,21.2-26.3,97.1-28.5,112.7
				C232.2,807.8,356.9,882.1,499,882.1c158.6,0,295.6-92.6,360-226.7C853.8,628.2,846.1,596,837.3,583.3z"/>
			<path class="st8" d="M716.2,664.7H311.1c-18.8,0-34,15.2-34,34v116c63.5,42.6,139.8,67.4,221.9,67.4c95.2,0,182.6-33.4,251.2-89
				v-94.4C750.2,679.9,735,664.7,716.2,664.7z"/>
			<path class="st6" d="M427.1,465.7c25.3,19.5,54.9,30.7,86.6,30.7c31.7,0,61.3-11.2,86.6-30.7V347.2H427.1V465.7z"/>
			<g>
				<path class="st9" d="M389,309.4c6.4,25.6,8,47.2-9.5,51.6c-17.5,4.4-47.5-10.1-53.9-35.7c-6.4-25.6,2.5-49.9,20-54.3
					C363.2,266.7,382.6,283.9,389,309.4z"/>
				<path class="st9" d="M638.2,309.4c-6.4,25.6-8,47.2,9.5,51.6c17.5,4.4,47.5-10.1,53.9-35.7c6.4-25.6-2.5-49.9-20-54.3
					C664.1,266.7,644.7,283.9,638.2,309.4z"/>
				<path class="st6" d="M345.7,271.1c-2.3,0.6-4.5,1.5-6.5,2.8c1.9,30.5,8.5,59.3,18.9,85.1c7.7,2.8,15.3,3.6,21.5,2
					c17.5-4.4,15.9-26,9.5-51.6C382.6,283.9,363.2,266.7,345.7,271.1z"/>
				<path class="st6" d="M681.6,271.1c-17.5-4.4-36.9,12.8-43.3,38.3c-6.4,25.6-8,47.2,9.5,51.6c6.1,1.5,13.8,0.8,21.5-2
					c10.4-25.8,17.1-54.6,18.9-85.1C686.1,272.7,683.9,271.7,681.6,271.1z"/>
			</g>
			<ellipse class="st9" cx="513.6" cy="256.3" rx="168.3" ry="215.3"/>
			<path class="st8" d="M531,24.6h-34.8c-83.3,0-150.9,67.5-150.9,150.9v41.6c0,11.2,1.5,22,4.4,32.2c1.6,5.8,91.5-74.8,163.9-74.8
				c72.4,0,162.3,80.3,164,74.5c2.8-10.2,4.3-20.8,4.3-31.9v-41.6C681.9,92.2,614.4,24.6,531,24.6z"/>
			<path class="st10" d="M513.6,185.9c79.8,0,146.6,33.4,163.9,78.1c2.9-7.4,4.4-15.1,4.4-23c0-55.8-75.3-101.1-168.3-101.1
				c-92.9,0-168.3,45.3-168.3,101.1c0,7.9,1.5,15.6,4.4,23C367,219.2,433.9,185.9,513.6,185.9z"/>
			<path class="st11" d="M513.6,192.1c79.8,0,146.6,33.4,163.9,78.1c2.9-7.4,4.4-15.1,4.4-23c0-55.8-75.3-101.1-168.3-101.1
				c-92.9,0-168.3,45.3-168.3,101.1c0,7.9,1.5,15.6,4.4,23C367,225.4,433.9,192.1,513.6,192.1z"/>
			<path class="st12" d="M537.4,382.3c39.9,7.6,32.3,25.3,32.3,25.3s0.8,20.3-5.9,34.8c-4.8,10.2-27.6,18.9-40.7,23.2
				c-3.9-5.1-8.9-13.4-9.4-23c-0.5,9.6-5.5,18-9.4,23c-13.1-4.3-36-13-40.7-23.2c-6.8-14.5-5.9-34.8-5.9-34.8s-7.6-17.7,32.3-25.3
				c0,0-49.3,6.8-49.3,24.5c0,17.7,0,47.5,0,47.5s21.3,30,73.1,30c47.9,0,73.1-30,73.1-30s0-29.8,0-47.5
				C586.7,389,537.4,382.3,537.4,382.3z"/>
			<g>
				<polygon class="st8" points="278.1,540.6 328.1,681.2 393.5,681.2 358.6,511.5 				"/>
				<circle class="st13" cx="355.9" cy="675.2" r="10.5"/>
				<polygon class="st8" points="749.2,540.6 699.2,681.2 633.7,681.2 668.7,511.5 				"/>
				<circle class="st13" cx="671.4" cy="675.2" r="10.5"/>
			</g>
		</g>
		<g id="Full_Feature_1_">
			<path class="st14" d="M1002.6,374.5c0,4.3-3.5,7.8-7.8,7.8H804.6c-4.3,0-7.8-3.5-7.8-7.8V129.9c0-4.3,3.5-7.8,7.8-7.8h190.3
				c4.3,0,7.8,3.5,7.8,7.8V374.5z"/>
			<path class="st15" d="M981.9,138.3H817.4c-3.2,0-5.8,2.6-5.8,5.8v218.7c0,3.2,2.6,5.8,5.8,5.8h139.3l31-30.9V144.2
				C987.8,140.9,985.2,138.3,981.9,138.3z"/>
			<g>
				<path class="st16" d="M950.5,146.6H848.9c-4,0-7.3-3.3-7.3-7.3v-7.8c0-4,3.3-7.3,7.3-7.3h101.6c4,0,7.3,3.3,7.3,7.3v7.8
					C957.8,143.3,954.5,146.6,950.5,146.6z M848.9,127.2c-2.4,0-4.4,2-4.4,4.4v7.8c0,2.4,2,4.4,4.4,4.4h101.6c2.4,0,4.4-2,4.4-4.4
					v-7.8c0-2.4-2-4.4-4.4-4.4H848.9z"/>
			</g>
			<path class="st17" d="M962.7,337.7c-3.2,0-5.8,2.6-5.8,5.8v25.2l30.9-31H962.7z"/>
			<g>
				<path class="st18" d="M863.1,199.6c0,3.2-2.6,5.8-5.8,5.8h-13.4c-3.2,0-5.8-2.6-5.8-5.8v-13.4c0-3.2,2.6-5.8,5.8-5.8h13.4
					c3.2,0,5.8,2.6,5.8,5.8V199.6z"/>
				<g>
					<path class="st19" d="M849.1,198.9c-0.2,0-0.3,0-0.5,0c-2.1-0.1-4.1-1.1-5.5-2.8l-8.6-10.2c-0.8-1-0.7-2.4,0.3-3.2
						c1-0.8,2.4-0.7,3.2,0.3l8.6,10.2c0.6,0.7,1.4,1.1,2.2,1.1c0.9,0.1,1.7-0.3,2.4-0.9l22.6-21c0.9-0.9,2.4-0.8,3.2,0.1
						c0.9,0.9,0.8,2.4-0.1,3.2l-22.6,21C852.9,198.2,851,198.9,849.1,198.9z"/>
				</g>
			</g>
			<g>
				<path class="st18" d="M863.1,254.7c0,3.2-2.6,5.8-5.8,5.8h-13.4c-3.2,0-5.8-2.6-5.8-5.8v-13.4c0-3.2,2.6-5.8,5.8-5.8h13.4
					c3.2,0,5.8,2.6,5.8,5.8V254.7z"/>
				<g>
					<path class="st19" d="M849.1,253.9c-0.2,0-0.3,0-0.5,0c-2.1-0.1-4.1-1.1-5.5-2.8l-8.6-10.2c-0.8-1-0.7-2.4,0.3-3.2
						c1-0.8,2.4-0.7,3.2,0.3l8.6,10.2c0.6,0.7,1.4,1.1,2.2,1.1c0.9,0.1,1.7-0.3,2.4-0.9l22.6-21c0.9-0.9,2.4-0.8,3.2,0.1
						c0.9,0.9,0.8,2.4-0.1,3.2l-22.6,21C852.9,253.2,851,253.9,849.1,253.9z"/>
				</g>
			</g>
			<g>
				<path class="st18" d="M863.1,309.7c0,3.2-2.6,5.8-5.8,5.8h-13.4c-3.2,0-5.8-2.6-5.8-5.8v-13.4c0-3.2,2.6-5.8,5.8-5.8h13.4
					c3.2,0,5.8,2.6,5.8,5.8V309.7z"/>
				<g>
					<path class="st19" d="M849.1,309c-0.2,0-0.3,0-0.5,0c-2.1-0.1-4.1-1.1-5.5-2.8l-8.6-10.2c-0.8-1-0.7-2.4,0.3-3.2
						c1-0.8,2.4-0.7,3.2,0.3l8.6,10.2c0.6,0.7,1.4,1.1,2.2,1.1c0.9,0.1,1.7-0.3,2.4-0.9l22.6-21c0.9-0.9,2.4-0.8,3.2,0.1
						c0.9,0.9,0.8,2.4-0.1,3.2l-22.6,21C852.9,308.2,851,309,849.1,309z"/>
				</g>
			</g>
			<path class="st17" d="M970.1,194.9c0,1.1-0.9,1.9-1.9,1.9h-88.5c-1.1,0-1.9-0.9-1.9-1.9v-3.4c0-1.1,0.9-1.9,1.9-1.9h88.5
				c1.1,0,1.9,0.9,1.9,1.9V194.9z"/>
			<path class="st17" d="M970.1,249.7c0,1.1-0.9,1.9-1.9,1.9h-88.5c-1.1,0-1.9-0.9-1.9-1.9v-3.4c0-1.1,0.9-1.9,1.9-1.9h88.5
				c1.1,0,1.9,0.9,1.9,1.9V249.7z"/>
			<path class="st17" d="M970.1,304.4c0,1.1-0.9,1.9-1.9,1.9h-88.5c-1.1,0-1.9-0.9-1.9-1.9V301c0-1.1,0.9-1.9,1.9-1.9h88.5
				c1.1,0,1.9,0.9,1.9,1.9V304.4z"/>
			<path class="st16" d="M913,122.6v-15.4C913,100,907,94,899.7,94c-7.3,0-13.3,5.9-13.3,13.3v15.4H913z M899.7,100.2
				c3.4,0,6.1,2.8,6.1,6.1c0,3.4-2.8,6.1-6.1,6.1c-3.4,0-6.1-2.8-6.1-6.1C893.5,102.9,896.3,100.2,899.7,100.2z"/>
			<path class="st20" d="M948.4,129.9c0,3.2-2.6,5.8-5.8,5.8h-85.7c-3.2,0-5.8-2.6-5.8-5.8v-8.4c0-3.2,2.6-5.8,5.8-5.8h85.7
				c3.2,0,5.8,2.6,5.8,5.8V129.9z"/>
		</g>
		<g>
			<polygon class="st14" points="106.6,521.6 155.8,472.4 148,464.6 98.8,513.9 75.6,528.1 92.3,544.8 			"/>
			<path class="st11" d="M233.5,453.6L166.8,387c-2.5-2.5-6.5-2.5-9,0l-63.5,63.5c-2.5,2.5-2.5,6.5,0,9l3.7,3.7l10.4-10.4
				c4-4,10.5-4,14.5,0l44.7,44.7c4,4,4,10.5,0,14.5l-10.4,10.4l3.7,3.7c2.5,2.5,6.5,2.5,9,0l63.5-63.5
				C235.9,460.1,235.9,456.1,233.5,453.6z"/>
			
				<rect x="128.1" y="437.5" transform="matrix(0.7071 0.7071 -0.7071 0.7071 363.6729 0.2551)" class="st21" width="107" height="3.3"/>
			
				<rect x="121.7" y="443.6" transform="matrix(0.7071 0.7071 -0.7071 0.7071 366.1437 6.5405)" class="st21" width="107" height="3.3"/>
			
				<ellipse transform="matrix(0.7071 -0.7071 0.7071 0.7071 -282.2367 246.5259)" class="st22" cx="156.5" cy="464" rx="8.5" ry="8.5"/>
			<g>
				<path class="st14" d="M96.2,585.7c10-17.2,7.6-39.6-7.1-54.3c-14.7-14.7-37.1-17.1-54.3-7.1l-7.1-7.1l-5,5l6.2,6.2l4.1,4.1l5,5
					c12.6-9.5,30.6-8.5,42.1,3c11.5,11.5,12.5,29.5,3,42.1l5,5l4.1,4.1l6.2,6.2l5-5L96.2,585.7z"/>
				<path class="st14" d="M91.8,604.2l-6.2-6.2l-4.1-4.1l-5-5c-12.6,9.5-30.6,8.5-42.1-3c-11.5-11.5-12.5-29.5-3-42.1l-5-5l-4.1-4.1
					l-6.2-6.2l-5,5l7.1,7.1c-10,17.2-7.6,39.6,7.1,54.3c14.7,14.7,37.1,17.1,54.3,7.1l7.1,7.1L91.8,604.2z"/>
			</g>
		</g>
	</g>
</g>
</svg>
