<?xml version="1.0" encoding="utf-8"?>
<!-- Generator: Adobe Illustrator 19.2.1, SVG Export Plug-In . SVG Version: 6.00 Build 0)  -->
<svg version="1.1" id="Слой_1" xmlns="http://www.w3.org/2000/svg" xmlns:xlink="http://www.w3.org/1999/xlink" x="0px" y="0px"
	 viewBox="0 0 1029.3 902.7" style="enable-background:new 0 0 1029.3 902.7;" xml:space="preserve">
<style type="text/css">
	.st0{fill:none;stroke:#D1240D;stroke-width:10;stroke-miterlimit:10;}
	.st1{fill-rule:evenodd;clip-rule:evenodd;fill:#FBFBFB;}
	.st2{fill-rule:evenodd;clip-rule:evenodd;fill:#2A7BB1;}
	.st3{fill-rule:evenodd;clip-rule:evenodd;fill:#03386E;}
	.st4{fill-rule:evenodd;clip-rule:evenodd;fill:#666666;}
	.st5{fill:#08C6A2;}
	.st6{fill-rule:evenodd;clip-rule:evenodd;fill:#E7584D;}
	.st7{fill-rule:evenodd;clip-rule:evenodd;fill:#FCB245;}
	.st8{fill-rule:evenodd;clip-rule:evenodd;fill:#ADECF7;}
	.st9{fill-rule:evenodd;clip-rule:evenodd;fill:#FED9B1;}
	.st10{fill-rule:evenodd;clip-rule:evenodd;fill:#335E8A;}
	.st11{fill-rule:evenodd;clip-rule:evenodd;fill:#808080;}
	.st12{fill-rule:evenodd;clip-rule:evenodd;fill:#B3B3B3;}
	.st13{fill-rule:evenodd;clip-rule:evenodd;fill:#E6E6E6;}
	.st14{fill-rule:evenodd;clip-rule:evenodd;fill:#FFFFFF;}
	.st15{fill-rule:evenodd;clip-rule:evenodd;fill:#FFB438;}
	.st16{fill-rule:evenodd;clip-rule:evenodd;fill:#FCD471;}
	.st17{fill-rule:evenodd;clip-rule:evenodd;fill:#FBC081;}
	.st18{fill-rule:evenodd;clip-rule:evenodd;fill:#4D4D4D;}
	.st19{fill-rule:evenodd;clip-rule:evenodd;fill:#B96F2D;}
	.st20{fill-rule:evenodd;clip-rule:evenodd;fill:#E4883A;}
	.st21{fill-rule:evenodd;clip-rule:evenodd;fill:#F99E3F;}
	.st22{fill-rule:evenodd;clip-rule:evenodd;fill:#F1698D;}
	.st23{fill-rule:evenodd;clip-rule:evenodd;fill:#D85E7F;}
	.st24{fill-rule:evenodd;clip-rule:evenodd;fill:#C7805C;}
	.st25{fill-rule:evenodd;clip-rule:evenodd;fill:#6BC06F;}
	.st26{fill-rule:evenodd;clip-rule:evenodd;fill:#87CC8A;}
	.st27{fill-rule:evenodd;clip-rule:evenodd;fill:#EFEFEF;}
	.st28{fill-rule:evenodd;clip-rule:evenodd;fill:#E99261;}
	.st29{fill-rule:evenodd;clip-rule:evenodd;fill:#E58A6B;}
	.st30{fill-rule:evenodd;clip-rule:evenodd;fill:#FAA17E;}
	.st31{fill-rule:evenodd;clip-rule:evenodd;fill:#F9B38C;}
	.st32{fill-rule:evenodd;clip-rule:evenodd;fill:#DE9266;}
</style>
<g id="Analytics">
	<g id="Background">
		<circle id="Background_2" class="st0" cx="496.9" cy="488.6" r="399"/>
	</g>
</g>
<g id="Слой_2">
	<g id="Report_1_">
		<g>
			<g>
				<rect x="169.3" y="204" class="st1" width="536.6" height="590.4"/>
				<path class="st2" d="M709.2,204H437.6H166c-10.8,0-19.5-8.8-19.5-19.5v-28.8c0-10.8,8.8-19.5,19.5-19.5h196
					c-0.3-2.7-0.5-5.4-0.5-8.2c0-42,34.1-76,76-76c42,0,76,34,76,76c0,2.8-0.1,5.5-0.5,8.2h196c10.7,0,19.5,8.8,19.5,19.5v28.8
					C728.6,195.2,719.9,204,709.2,204L709.2,204z M437.6,98.7c-16.2,0-29.3,13.1-29.3,29.3c0,16.2,13.1,29.3,29.3,29.3
					c16.2,0,29.3-13.1,29.3-29.3C466.8,111.8,453.8,98.7,437.6,98.7L437.6,98.7z"/>
				<path class="st3" d="M709.2,204H437.6H166c-10.8,0-19.5-8.8-19.5-19.5v-0.2h582.1v0.2C728.6,195.2,719.9,204,709.2,204
					L709.2,204z"/>
				<rect x="227.9" y="574.6" class="st4" width="259" height="13.4"/>
				<rect x="544.7" y="574.6" class="st4" width="93.9" height="13.4"/>
				<rect x="369.5" y="617" class="st4" width="269" height="13.5"/>
				<rect x="227.9" y="661.4" class="st4" width="309.2" height="13.5"/>
				<rect x="227.9" y="617" class="st4" width="87.1" height="13.5"/>
			</g>
			<g>
				<path class="st5" d="M537.2,342.7h77.4c4.6,0,8.8,1.9,11.8,4.9c3,3,4.9,7.3,4.9,11.8v77.4c0,4.5-1.9,8.7-4.9,11.7
					c-3,3-7.2,4.9-11.8,4.9h-77.4c-4.6,0-8.8-1.9-11.8-4.9c-3-3-4.9-7.2-4.9-11.7v-77.4c0-4.5,1.8-8.8,4.9-11.8
					C528.4,344.7,532.5,342.7,537.2,342.7L537.2,342.7z M614.5,352.3h-77.4c-2,0-3.8,0.8-5.1,2.1c-1.3,1.3-2.1,3-2.1,5v77.4
					c0,1.9,0.9,3.7,2.1,5c1.3,1.3,3.1,2.1,5.1,2.1h77.4c2,0,3.8-0.8,5-2.1c1.3-1.3,2.1-3.1,2.1-5v-77.4c0-2-0.8-3.8-2.1-5
					C618.3,353.1,616.5,352.3,614.5,352.3L614.5,352.3z"/>
				<polygon class="st3" points="530,376.6 564.7,437.6 676.9,300.4 565,398.8 				"/>
				<rect x="310.5" y="459.6" class="st6" width="44.4" height="71.8"/>
				<rect x="354.9" y="412" class="st7" width="44.3" height="119.4"/>
				<rect x="399.2" y="364.4" class="st6" width="44.4" height="167"/>
				<rect x="443.6" y="286.7" class="st7" width="44.4" height="244.6"/>
				<rect x="266.1" y="495.5" class="st7" width="44.3" height="35.9"/>
				<rect x="221.8" y="516.9" class="st6" width="44.4" height="14.5"/>
				<path class="st8" d="M349.9,361.7c22.1,0,40.2-18.1,40.2-40.2c0-22.2-18.1-40.2-40.2-40.2c-22.2,0-40.2,18.1-40.2,40.2
					C309.7,343.6,327.7,361.7,349.9,361.7L349.9,361.7z"/>
				<path class="st6" d="M327.5,329.7c0,0.6,0.5,1,1,1c0.6,0,1.1-0.4,1.1-1c0-10.2,8.9-12.2,8.9-19.3c0-0.5-0.5-1-1-1h-11.7
					c-0.5,0-0.9,0.5-0.9,1c0,0.5,0.4,0.9,0.9,0.9h10.6C336.4,316.2,327.5,319.4,327.5,329.7L327.5,329.7z M348.6,329
					c-3.9,0-5.7-2.6-5.7-9.1c0-6.5,1.8-9,5.7-9c3.9,0,5.7,2.6,5.7,9C354.3,326.4,352.5,329,348.6,329L348.6,329z M348.6,309
					c-5.3,0-7.7,3.4-7.7,10.9c0,7.5,2.4,11,7.7,11c5.3,0,7.7-3.4,7.7-11C356.3,312.4,353.9,309,348.6,309L348.6,309z M374.7,309.2
					c-0.3,0-0.6,0.3-0.7,0.4l-10.2,20.1c-0.1,0.1-0.1,0.2-0.1,0.3c0,0.4,0.3,0.7,0.8,0.7c0.3,0,0.5-0.1,0.7-0.4l10.2-20
					c0-0.1,0.1-0.3,0.1-0.3C375.5,309.5,375.1,309.2,374.7,309.2L374.7,309.2z M363.9,317.7c-2.4,0-3-1.7-3-3.6c0-2,0.7-3.7,3-3.7
					s3,1.6,3,3.7C366.9,316,366.3,317.7,363.9,317.7L363.9,317.7z M363.9,309c-3.4,0-4.6,2.2-4.6,5.1c0,2.8,1.2,5.1,4.6,5.1
					c3.4,0,4.6-2.3,4.6-5.1C368.4,311.2,367.3,309,363.9,309L363.9,309z M375.4,329.4c-2.4,0-3-1.6-3-3.6c0-2,0.7-3.7,3-3.7
					c2.4,0,3,1.6,3,3.7C378.5,327.8,377.8,329.4,375.4,329.4L375.4,329.4z M375.4,320.6c-3.4,0-4.6,2.3-4.6,5.1
					c0,2.8,1.2,5.1,4.6,5.1c3.4,0,4.6-2.3,4.6-5.1C380,323,378.8,320.6,375.4,320.6L375.4,320.6z"/>
				<path class="st8" d="M349.9,263.3c32.1,0,58.1,26,58.1,58.1c0,32.1-26.1,58.1-58.1,58.1c-32.1,0-58.1-26.1-58.1-58.1
					C291.8,289.3,317.8,263.3,349.9,263.3L349.9,263.3z M349.9,255.3c36.5,0,66,29.6,66,66.1c0,36.5-29.5,66-66,66
					c-36.5,0-66.1-29.5-66.1-66C283.8,285,313.4,255.3,349.9,255.3L349.9,255.3z"/>
				<path class="st3" d="M231.2,469.2c25.1-10.7,59.2-18.1,79.9-72.6l-14.4-2.8l36.1-27.6l10.8,43.3l-13.1-6.3
					C306.2,450.6,262.4,461.6,231.2,469.2L231.2,469.2z"/>
			</g>
		</g>
		<g>
			<g>
				<path class="st3" d="M864.5,815.1c-18.9,3.2-38.3,4.9-58,4.9c-12.5,0-25-0.7-37.3-2v-53.8c0-4.5,3.1-8.2,6.9-8.2h81.5
					c3.8,0,6.9,3.8,6.9,8.2V815.1z"/>
				<path class="st9" d="M885.9,636c25.5-25.9,1.2-93.4-38.9-122.9c-51.3-37.7-96.6-53.6-130.6-29.5
					c35.7,34.3,71.4,68.6,107.1,102.9c-46.2,1.8-35.2,3.1-70.1-28.4l-4.1,85.7c5.3,11.1,11,21.4,14.2,33.2
					c6.6,24.3,9.5,51.8,14.6,77.4l73.3,2.9C859.2,707.2,852,670.6,885.9,636L885.9,636z"/>
				<path class="st10" d="M767.4,762.8h98.9c2.9,0,5.2-2.4,5.2-5.2v-10.9c0-2.8-2.3-5.2-5.2-5.2h-98.9c-2.8,0-5.2,2.4-5.2,5.2v10.9
					C762.2,760.4,764.6,762.8,767.4,762.8L767.4,762.8z"/>
			</g>
			<g>
				<path class="st3" d="M659.2,470.1l247,190.6c2.2,1.8,5.5,1.3,7.3-0.9l19.3-24.9c1.8-2.3,1.3-5.5-0.9-7.3l-247-190.6
					c-2.2-1.7-5.5-1.3-7.3,0.9l-19.3,25C656.5,465.1,656.9,468.4,659.2,470.1L659.2,470.1z"/>
				<polygon class="st11" points="676.6,439 634.2,401.1 604.2,401.2 667.9,450.4 				"/>
				<polygon class="st12" points="659.2,461.7 611.7,430.3 604.2,401.2 667.9,450.4 				"/>
				<path class="st13" d="M631.9,415.8c2.4,1.8,2.8,5.2,1,7.6c-1.8,2.4-5.3,2.8-7.7,1c-2.3-1.8-2.8-5.3-0.9-7.6
					C626.1,414.4,629.5,413.9,631.9,415.8L631.9,415.8z"/>
				<path class="st10" d="M938.5,639.3L938.5,639.3c3.2,2.4,3.8,7.1,1.3,10.2l-10.1,13.1c-2.4,3.2-7.1,3.8-10.2,1.3l0,0
					c-3.2-2.4-3.8-7.1-1.3-10.2l10.1-13.1C930.7,637.4,935.3,636.8,938.5,639.3L938.5,639.3z"/>
				<polygon class="st10" points="924.9,655 859.7,604.7 856.6,608.7 921.7,659.1 				"/>
				<polygon class="st13" points="840.9,557.4 845.7,561.1 825,588 820.2,584.2 				"/>
				<polygon class="st13" points="719,463.4 723.5,466.9 701.7,495.2 697.2,491.7 				"/>
			</g>
			<g>
				<path class="st9" d="M743.4,509.5l14.2,37.5c4.4,18,16.4,31.5,26.6,43.1l1.5,31.4c0.6,11.7-3.6,38.5-11.3,29.6l0,0
					c-10.4,5.3-22.3,0.8-26.4-10.2l-44.5-117.5c-4.2-11,1-24.3,11.3-29.6l0,0C723.7,486.1,739.2,498.5,743.4,509.5L743.4,509.5z"/>
				<path class="st14" d="M714.3,532.2c-0.7-2.1-4.2-11.5-4.2-12.9c0.5-24.6,17.8-22.9,26.7-8.2c2.4,4.1,3.6,8.5,5.1,13.7
					C745.6,537.6,719,545.7,714.3,532.2L714.3,532.2z"/>
			</g>
		</g>
		<g>
			<path class="st15" d="M200.1,831.7c10.6,0,77.4-0.1,77.4-11.1v-15.5c0-1.5-0.5-2.9-1.4-4c-1.2-1.5-10.3-0.3-12.3-0.3L140,799.6
				c-2.2,0-15.1,0.1-16.2,1.8c-0.7,1-1.2,2.3-1.2,3.7v15.5C122.6,833.7,189,831.7,200.1,831.7L200.1,831.7z"/>
			<path class="st16" d="M200.2,809.1c42,0,76.3-3.4,76.3-7.5c0-4.2-34.3-7.5-76.3-7.5c-42,0-76.3,3.3-76.3,7.5
				C123.9,805.7,158.2,809.1,200.2,809.1L200.2,809.1z"/>
			<path class="st15" d="M200.2,796c-34.6,0-63.8,2.2-73.1,5.3c15.2-2.1,42.3-3.5,73.1-3.5c30.9,0,57.9,1.4,73.1,3.5
				C264,798.2,234.7,796,200.2,796L200.2,796z"/>
			<path class="st15" d="M200.1,804.4c10.6,0,77.4-0.1,77.4-11.1v-15.5c0-1.5-0.5-3-1.4-4c-1.2-1.5-10.3-0.3-12.3-0.3L140,772.2
				c-2.2,0-15.1,0.1-16.2,1.8c-0.7,1.1-1.2,2.4-1.2,3.8v15.5C122.6,806.4,189,804.4,200.1,804.4L200.1,804.4z"/>
			<path class="st16" d="M200.2,781.8c42,0,76.3-3.4,76.3-7.5c0-4.2-34.3-7.5-76.3-7.5c-42,0-76.3,3.4-76.3,7.5
				C123.9,778.4,158.2,781.8,200.2,781.8L200.2,781.8z"/>
			<path class="st15" d="M200.2,768.7c-34.6,0-63.8,2.2-73.1,5.3c15.2-2.1,42.3-3.5,73.1-3.5c30.9,0,57.9,1.4,73.1,3.5
				C264,770.9,234.7,768.7,200.2,768.7L200.2,768.7z"/>
			<path class="st15" d="M200.1,777.1c10.6,0,77.4-0.1,77.4-11.1v-15.6c0-1.5-0.5-2.9-1.4-4c-1.2-1.5-10.3-0.3-12.3-0.3L140,744.9
				c-2.2,0-15.1,0.1-16.2,1.8c-0.7,1.1-1.2,2.4-1.2,3.7V766C122.6,779.1,189,777.1,200.1,777.1L200.1,777.1z"/>
			<path class="st16" d="M200.2,754.5c42,0,76.3-3.4,76.3-7.5c0-4.2-34.3-7.5-76.3-7.5c-42,0-76.3,3.4-76.3,7.5
				C123.9,751.1,158.2,754.5,200.2,754.5L200.2,754.5z"/>
			<path class="st15" d="M200.2,741.4c-34.6,0-63.8,2.2-73.1,5.3c15.2-2.1,42.3-3.5,73.1-3.5c30.9,0,57.9,1.4,73.1,3.5
				C264,743.6,234.7,741.4,200.2,741.4L200.2,741.4z"/>
			<path class="st15" d="M200.1,749.8c10.6,0,77.4-0.1,77.4-11.1v-15.6c0-1.5-0.5-2.9-1.4-4c-1.2-1.4-10.3-0.2-12.3-0.2L140,717.6
				c-2.2,0-15.1,0.1-16.2,1.8c-0.7,1.1-1.2,2.4-1.2,3.7v15.6C122.6,751.8,189,749.8,200.1,749.8L200.1,749.8z"/>
			<path class="st16" d="M200.2,727.2c42,0,76.3-3.4,76.3-7.5c0-4.2-34.3-7.5-76.3-7.5c-42,0-76.3,3.4-76.3,7.5
				C123.9,723.8,158.2,727.2,200.2,727.2L200.2,727.2z"/>
			<path class="st15" d="M200.2,714.1c-34.6,0-63.8,2.2-73.1,5.3c15.2-2.1,42.3-3.6,73.1-3.6c30.9,0,57.9,1.4,73.1,3.6
				C264,716.3,234.7,714.1,200.2,714.1L200.2,714.1z"/>
			<path class="st15" d="M217.1,720.1c10.6,0,77.5-0.1,77.5-11.1v-15.5c0-1.5-0.5-2.9-1.4-4c-1.2-1.5-10.3-0.2-12.3-0.3L157,688
				c-2.2-0.1-15,0.1-16.2,1.8c-0.8,1.1-1.2,2.3-1.2,3.7V709C139.6,722.1,205.9,720.1,217.1,720.1L217.1,720.1z"/>
			<path class="st16" d="M217.2,697.5c42,0,76.3-3.4,76.3-7.5c0-4.1-34.3-7.5-76.3-7.5c-42,0-76.3,3.4-76.3,7.5
				C140.9,694.2,175.2,697.5,217.2,697.5L217.2,697.5z"/>
			<path class="st15" d="M217.2,684.4c-34.6,0-63.8,2.2-73.1,5.3c15.2-2.1,42.3-3.5,73.1-3.5c30.9,0,57.9,1.4,73.1,3.5
				C281,686.6,251.8,684.4,217.2,684.4L217.2,684.4z"/>
			<path class="st15" d="M197.9,690.5c10.6,0,77.5-0.1,77.5-11.1v-15.5c0-1.5-0.5-2.9-1.5-4c-1.2-1.5-10.3-0.2-12.3-0.3l-123.8-1.2
				c-2.2-0.1-15,0.1-16.2,1.8c-0.7,1.1-1.2,2.3-1.2,3.7v15.5C120.4,692.4,186.8,690.5,197.9,690.5L197.9,690.5z"/>
			<path class="st16" d="M198.1,667.8c42,0,76.2-3.4,76.2-7.5c0-4.1-34.2-7.5-76.2-7.5c-42.1,0-76.3,3.4-76.3,7.5
				C121.8,664.5,156,667.8,198.1,667.8L198.1,667.8z"/>
			<path class="st15" d="M198.1,654.7c-34.6,0-63.8,2.2-73.2,5.3c15.2-2.1,42.3-3.5,73.2-3.5c30.8,0,57.9,1.4,73.1,3.5
				C261.9,657,232.6,654.7,198.1,654.7L198.1,654.7z"/>
			<path class="st15" d="M166.2,658c10.4-1.8,76.4-13,74.5-23.9l-2.6-15.3c-0.3-1.5-1.1-2.8-2.1-3.7c-1.4-1.3-10.2,1.5-12.2,1.8
				l-122.3,19.5c-2.1,0.3-14.8,2.6-15.6,4.5c-0.6,1.2-0.8,2.5-0.6,3.8L88,660C90.2,673,155.3,659.9,166.2,658L166.2,658z"/>
			<path class="st16" d="M160,621c-41.6,7.1-74.7,16-73.9,20.1c0.7,4.1,34.9,1.6,76.4-5.4c41.6-7.1,74.7-16.1,74-20.1
				C235.8,611.5,201.6,613.9,160,621L160,621z"/>
			<path class="st15" d="M160.3,622.8c-34.1,5.8-62.5,12.9-71.2,17.5c14.6-4.6,41.1-10.6,71.6-15.7c30.4-5.1,57.3-8.3,72.7-8.8
				C223.6,614.3,194.4,617,160.3,622.8L160.3,622.8z"/>
			<path class="st15" d="M336.4,834.3c41,0,74.4-33.4,74.4-74.4c0-41-33.4-74.5-74.4-74.5c-41,0-74.5,33.4-74.5,74.5
				C261.9,800.9,295.4,834.3,336.4,834.3L336.4,834.3z"/>
			<path class="st16" d="M336.4,821.2c33.8,0,61.3-27.5,61.3-61.3c0-33.8-27.5-61.3-61.3-61.3c-33.8,0-61.3,27.5-61.3,61.3
				C275.1,793.7,302.6,821.2,336.4,821.2L336.4,821.2z"/>
			<path class="st15" d="M336.4,817.7c31.8,0,57.8-26,57.8-57.8c0-31.9-26-57.8-57.8-57.8c-31.9,0-57.8,25.9-57.8,57.8
				C278.6,791.7,304.5,817.7,336.4,817.7L336.4,817.7z"/>
			<path class="st16" d="M330.1,793.2h13.3v-5.3c7.3-2.6,12.7-9.1,12.7-16.9c0-4.4-1.6-8.2-4.3-11.4c-3.6-4.2-9.2-7-15.5-7
				c-2.6,0-4.7-2-4.7-4.4c0-2.4,2.1-4.5,4.7-4.5c2.7,0,4.9,2,4.9,4.5H356c0-7.7-5.3-14.3-12.7-16.9V725h-13.3v5.9
				c-7.8,2.4-13.4,9.2-13.4,17.2c0,10.1,8.7,18.1,19.6,18.1c2.7,0,4.9,2,4.9,4.4c0,2.4-2.2,4.4-4.9,4.4c-2.6,0-4.7-2-4.7-4.5h-15
				c0,8.4,5.7,15.1,13.5,17.5V793.2z"/>
		</g>
		<g>
			<g>
				<path class="st17" d="M135.7,281.1l7.7,29.8c-12.9,23-25.7,25.7-38.3,1l7.5-30.1C126.4,225.6,121.6,226.9,135.7,281.1
					L135.7,281.1z"/>
				<path class="st18" d="M115.8,266.4c8.6-36.7,7.7-36.1,16.4-0.3c-2.2,3.4-5.1,5.5-8.2,5.6C120.9,271.7,118,269.7,115.8,266.4
					L115.8,266.4z"/>
				<path class="st19" d="M117.3,499.1l-0.1-17.9l-0.3-158.6c0-8.1-3.4-14.7-7.4-14.6l0,0c-4,0.1-7.3,6.9-7.3,15l0.4,176.6
					c0,0.7,0,1.3,0.1,2v18.1c0,6.9,2.9,12.6,6.3,12.5l8.4-0.2L117.3,499.1z"/>
				<path class="st20" d="M115.2,499.1l-0.1-18l-0.5-158.6c0-8.1,3.7-14.9,8.3-15l0,0c4.6-0.1,8.3,6.5,8.4,14.6l0.5,158.6l0.1,17.9
					l0.1,32.8l-16.7,0.4L115.2,499.1z"/>
				<path class="st21" d="M146.6,498.3v-7.1L146,321.7c0-8.1-3.8-14.7-8.5-14.6l0,0c-4.7,0.1-8.5,6.8-8.4,15l0.5,158.6l0.1,18
					l0.1,32.8l9.8-0.3c3.6-0.1,6.7-4.9,7.1-11L146.6,498.3z"/>
				<path class="st22" d="M114,564.6l22.1-0.6c6.1-0.1,11-5.2,11-11.3l-0.1-28.7c-0.1-6.1-5-10.9-11.1-10.8l-22.1,0.6
					c-6.1,0.2-11,5.3-11,11.3l0.1,28.7C103,560,107.9,564.8,114,564.6L114,564.6z"/>
				<path class="st23" d="M107.7,531.5l34.7-1.1c2.6-0.1,4.8-2.3,4.8-4.9v-9.5c0-2.6-2.2-4.6-4.8-4.6l-34.7,1.1
					c-2.6,0.1-4.7,2.3-4.7,4.9l0.1,9.5C103,529.5,105.1,531.6,107.7,531.5L107.7,531.5z"/>
			</g>
			<polygon class="st16" points="765,426.8 825,426.8 825,293.5 863.1,293.5 829.1,234.5 795,175.5 760.9,234.5 726.9,293.5 
				765,293.5 			"/>
		</g>
		<g>
			<path class="st24" d="M508.6,701.4h217.9c6.4,0,11.7,5.3,11.7,11.7v123.5c0,6.5-5.3,11.7-11.7,11.7H508.6
				c-6.5,0-11.7-5.2-11.7-11.7V713.1C496.9,706.7,502.1,701.4,508.6,701.4L508.6,701.4z"/>
			<path class="st25" d="M692,631.4l21.2,190.7c0.2,1.8-1.1,3.4-2.9,3.6l-86.6,9.6c-1.8,0.3-3.4-1.1-3.6-2.8L599,641.8
				c-0.2-1.8,1.1-3.4,2.8-3.6l86.6-9.6C690.2,628.3,691.8,629.6,692,631.4L692,631.4z"/>
			<path class="st26" d="M686.2,639.3l19.6,176.5c0.2,1.5-0.9,3-2.4,3.1l-74.1,8.2c-1.6,0.2-3-0.9-3.1-2.4l-19.7-176.6
				c-0.2-1.5,0.9-2.9,2.4-3.1l74.2-8.2C684.6,636.6,686,637.7,686.2,639.3L686.2,639.3z"/>
			<path class="st25" d="M683.4,664.3l7.1,63.8l7.1,63.8c-0.5,0-1,0.1-1.5,0.1c-13.2,1.5-23,11.5-21.7,22.6c0.1,0.7,0.2,1.3,0.3,2
				l-17.5,1.9c0-0.7,0-1.3-0.1-2c-1.3-11-13-18.7-26.2-17.2c-0.5,0.1-1,0.1-1.5,0.2l-7.1-63.8l-7.1-63.8c0.5,0,1-0.1,1.5-0.1
				c13.2-1.5,23-11.5,21.7-22.6c-0.1-0.7-0.1-1.3-0.3-2l17.5-1.9c0,0.7,0.1,1.3,0.1,2c1.2,11,12.9,18.7,26.1,17.2
				C682.5,664.5,682.9,664.4,683.4,664.3L683.4,664.3z"/>
			<path class="st25" d="M583.4,595.1l92.2,168.3c0.9,1.6,0.3,3.6-1.3,4.5L598,809.7c-1.6,0.9-3.6,0.3-4.5-1.3l-92.2-168.3
				c-0.9-1.6-0.3-3.6,1.3-4.4l76.4-41.9C580.5,592.9,582.5,593.5,583.4,595.1L583.4,595.1z"/>
			<path class="st26" d="M581,604.6l85.3,155.7c0.7,1.4,0.3,3.1-1.1,3.8L599.8,800c-1.3,0.7-3,0.2-3.8-1.1l-85.3-155.8
				c-0.7-1.3-0.3-3,1.1-3.8l65.4-35.9C578.4,602.7,580.2,603.2,581,604.6L581,604.6z"/>
			<path class="st25" d="M588,628.8l30.8,56.3l30.9,56.3c-0.5,0.3-0.9,0.5-1.3,0.7c-11.7,6.4-16.8,19.4-11.5,29.1
				c0.3,0.6,0.7,1.2,1.1,1.7l-15.4,8.4c-0.3-0.6-0.5-1.2-0.9-1.8c-5.3-9.7-19.1-12.4-30.8-6c-0.4,0.3-0.9,0.5-1.3,0.8L558.7,718
				l-30.8-56.3c0.5-0.2,0.9-0.4,1.3-0.7c11.7-6.4,16.8-19.5,11.5-29.1c-0.3-0.6-0.7-1.2-1.1-1.7l15.4-8.4c0.3,0.6,0.5,1.2,0.9,1.8
				c5.3,9.7,19.1,12.4,30.7,6C587.2,629.3,587.5,629.1,588,628.8L588,628.8z"/>
			<path class="st27" d="M556.1,699l5.1,9.2l3.7-2c4.6,4.1,11.1,5.3,16.5,2.4c3-1.7,5.1-4.2,6.3-7.3c1.5-4.1,1.3-9-1.1-13.4
				c-1-1.8-0.5-4.1,1.3-5c1.6-0.9,3.9-0.2,4.9,1.7c1.1,1.8,0.5,4.2-1.3,5.1l5.7,10.3c5.3-2.9,7.9-9.1,6.9-15.2l4.3-2.4l-5.1-9.2
				l-4.2,2.2c-4.6-4.5-11.4-5.8-17-2.7c-7,3.8-9.2,12.9-5.1,20.4c1.1,1.8,0.5,4.2-1.3,5.1c-1.6,0.9-3.9,0.1-4.9-1.6
				c-1-1.8-0.5-4.1,1.3-5.1l-5.7-10.4c-5.7,3.2-8.3,9.7-6.9,16L556.1,699z"/>
			<path class="st28" d="M507.6,713.5h219.8c5.9,0,10.7,4.8,10.7,10.8v113.3c0,5.9-4.8,10.7-10.7,10.7H507.6
				c-5.9,0-10.7-4.8-10.7-10.7V724.3C496.9,718.4,501.7,713.5,507.6,713.5L507.6,713.5z"/>
			<path class="st29" d="M506.4,729.7h222.3c5.2,0,9.4,4.3,9.4,9.4v99.7c0,5.2-4.2,9.4-9.4,9.4H506.4c-5.2,0-9.4-4.2-9.4-9.4v-99.7
				C496.9,734,501.1,729.7,506.4,729.7L506.4,729.7z"/>
			<path class="st30" d="M531.9,729.7h196.7c5.2,0,9.4,4.3,9.4,9.4v99.7c0,5.2-4.2,9.4-9.4,9.4H531.9c-5.2,0-9.4-4.2-9.4-9.4v-99.7
				C522.5,734,526.7,729.7,531.9,729.7L531.9,729.7z"/>
			<path class="st31" d="M560.2,729.7h168.4c5.2,0,9.4,4.3,9.4,9.4v99.7c0,5.2-4.2,9.4-9.4,9.4H560.2c-5.2,0-9.4-4.2-9.4-9.4v-99.7
				C550.8,734,555,729.7,560.2,729.7L560.2,729.7z"/>
			<path class="st32" d="M582.3,773.6c9,0,16.3-7.3,16.3-16.3c0-9-7.3-16.3-16.3-16.3c-9,0-16.3,7.3-16.3,16.3
				C566,766.3,573.4,773.6,582.3,773.6L582.3,773.6z"/>
			<path class="st31" d="M582.3,753c2.4,0,4.4,1.9,4.4,4.4c0,2.4-2,4.4-4.4,4.4c-2.4,0-4.4-2-4.4-4.4C578,754.9,580,753,582.3,753
				L582.3,753z"/>
		</g>
	</g>
</g>
</svg>
