<?xml version="1.0" encoding="utf-8"?>
<!-- Generator: Adobe Illustrator 19.2.1, SVG Export Plug-In . SVG Version: 6.00 Build 0)  -->
<svg version="1.1" id="Слой_1" xmlns="http://www.w3.org/2000/svg" xmlns:xlink="http://www.w3.org/1999/xlink" x="0px" y="0px"
	 viewBox="0 0 1029.3 902.7" style="enable-background:new 0 0 1029.3 902.7;" xml:space="preserve">
<style type="text/css">
	.st0{fill:none;stroke:#D1240D;stroke-width:10;stroke-miterlimit:10;}
	.st1{fill:#354666;}
	.st2{fill:#F4F4F4;}
	.st3{opacity:0.1;}
	.st4{fill:#16A085;}
	.st5{fill:#F2F2F2;}
	.st6{opacity:0.3;}
	.st7{fill:#E74C3C;}
	.st8{fill:#0E8FFF;}
	.st9{fill:#3F3F3F;}
	.st10{opacity:0.2;}
	.st11{fill:#757575;}
	.st12{opacity:0.3;fill:#757575;}
	.st13{fill:#1ABC9C;}
	.st14{fill:#34495E;}
	.st15{opacity:0.1;fill:#FFFFFF;}
	.st16{fill:#232700;}
	.st17{opacity:0.1;fill:#757575;}
	.st18{fill-rule:evenodd;clip-rule:evenodd;fill:#003333;}
	.st19{fill-rule:evenodd;clip-rule:evenodd;fill:#344F84;}
	.st20{opacity:0.5;fill-rule:evenodd;clip-rule:evenodd;}
	.st21{opacity:0.8;fill-rule:evenodd;clip-rule:evenodd;fill:#FFFFFF;}
	.st22{fill-rule:evenodd;clip-rule:evenodd;fill:#C6C6C6;}
	.st23{fill-rule:evenodd;clip-rule:evenodd;fill:#223666;}
	.st24{opacity:0.3;fill-rule:evenodd;clip-rule:evenodd;}
	.st25{fill-rule:evenodd;clip-rule:evenodd;fill:#333333;}
	.st26{fill:#F94B68;}
	.st27{fill:#3ACEB2;}
	.st28{fill-rule:evenodd;clip-rule:evenodd;fill:#F05161;}
	.st29{opacity:0.5;fill-rule:evenodd;clip-rule:evenodd;fill:#FFFFFF;}
	.st30{fill-rule:evenodd;clip-rule:evenodd;fill:#F39C12;}
	.st31{fill-rule:evenodd;clip-rule:evenodd;fill:#EA844B;}
	.st32{fill-rule:evenodd;clip-rule:evenodd;fill:#1ABC9C;}
	.st33{fill:#A5A5A5;}
	.st34{opacity:0.3;fill:#FFFFFF;}
	.st35{fill:#CCCCCC;}
	.st36{fill:#223666;}
	.st37{fill:#E2E2E2;}
	.st38{fill:#9AC900;}
	.st39{fill:#C3DF00;}
	.st40{fill:#DFC300;}
	.st41{fill:#E85F00;}
	.st42{fill:#E53400;}
	.st43{fill:#0CC1B0;}
	.st44{fill:#F6B98A;}
	.st45{fill:#EFB73A;}
	.st46{fill:#33839E;}
	.st47{fill:#5E3B28;}
</style>
<g id="Analytics">
	<g id="Background">
		<circle id="Background_2" class="st0" cx="496.9" cy="488.6" r="399"/>
	</g>
</g>
<g id="Слой_2_1_">
	<g id="Analysis_System_1_">
		<g id="Book_2_">
			<g id="Book_3_">
				<rect x="368.8" y="37" class="st1" width="325.8" height="209.5"/>
				<rect x="381.4" y="44.9" class="st2" width="302.4" height="194.4"/>
				<rect x="397.6" y="44.9" class="st3" width="286.2" height="194.4"/>
				<rect x="550.1" y="55" class="st4" width="115.6" height="7.6"/>
				<rect x="550.1" y="72.4" class="st4" width="115.6" height="7.6"/>
				<rect x="546.5" y="93" class="st4" width="115.6" height="7.6"/>
				<rect x="546.5" y="108.4" class="st4" width="115.6" height="7.6"/>
				<rect x="546.5" y="125.2" class="st4" width="115.6" height="7.6"/>
				<rect x="546.5" y="151.6" class="st4" width="115.6" height="7.6"/>
				<polygon class="st5" points="629.1,266.2 531.7,239.3 532.6,44.7 629.1,7 				"/>
				<rect x="672.9" y="44.9" class="st6" width="10.9" height="194.4"/>
				<rect x="406.7" y="55" class="st7" width="115.6" height="7.6"/>
				<rect x="406.7" y="84" class="st7" width="115.6" height="7.6"/>
				<rect x="406.7" y="96.8" class="st7" width="115.6" height="7.6"/>
				<rect x="406.7" y="129" class="st7" width="115.6" height="7.6"/>
				<rect x="406.7" y="142.1" class="st8" width="115.6" height="7.6"/>
				<rect x="406.7" y="155.4" class="st8" width="115.6" height="7.6"/>
				<rect x="406.7" y="180.6" class="st4" width="115.6" height="7.6"/>
				<rect x="406.7" y="197.4" class="st4" width="115.6" height="7.6"/>
			</g>
			<g id="Pen_2_">
				<g id="Pen_3_">
					<g>
						<path class="st9" d="M434.6,213.6c0.6,3.6-1.2,7.2-4,8l0,0c-2.8,0.8-5.6-1.5-6.3-5.1L402.1,85.7c-0.6-3.6,1.2-7.2,4-8l0,0
							c2.8-0.8,5.6,1.5,6.3,5.1L434.6,213.6z"/>
						<path class="st10" d="M407.3,77.6l24,141.3l2.8-0.8c0.5-1.3,0.7-2.9,0.5-4.5L412.4,82.9C411.8,79.8,409.7,77.6,407.3,77.6z"/>
						<path class="st11" d="M422.5,123.4c0.3,1.5-0.5,3.1-1.7,3.4l0,0c-1.2,0.3-2.4-0.6-2.7-2.2l-5.9-34.4c-0.3-1.5,0.5-3.1,1.7-3.4
							l0,0c1.2-0.3,2.4,0.6,2.7,2.2L422.5,123.4z"/>
						<path class="st12" d="M402.1,85.7l22.2,130.7c0.5,3,2.5,5.1,4.8,5.3l0,0L404.7,78.4C402.7,79.8,401.6,82.7,402.1,85.7z"/>
					</g>
					<g>
						<path class="st13" d="M439.6,235.9c0,3.7-2.4,6.7-5.3,6.7l0,0c-2.9,0-5.3-3-5.3-6.7V102.1c0-3.7,2.4-6.7,5.3-6.7l0,0
							c2.9,0,5.3,3,5.3,6.7V235.9z"/>
						<path class="st10" d="M435.6,95.6v146.8c0,0,1.3,0,2.9-2.2c0.8-1.1,1.2-2.7,1.2-4.3V102.1C439.6,98.9,437.9,96.3,435.6,95.6z"
							/>
						<path class="st14" d="M442.8,144.5c0,1.6-1,2.9-2.2,2.9l0,0c-1.2,0-2.2-1.3-2.2-2.9v-35.2c0-1.6,1-2.9,2.2-2.9l0,0
							c1.2,0,2.2,1.3,2.2,2.9V144.5z"/>
						<path class="st15" d="M429.1,102.1v133.8c0,3.1,1.6,5.7,3.8,6.5l0,0V95.7C430.7,96.5,429.1,99.1,429.1,102.1z"/>
					</g>
					<g>
						<path class="st7" d="M470,210.1c-0.4,3.7-3.1,6.2-6,5.6l0,0c-2.9-0.6-4.8-4-4.4-7.7l16.1-132.2c0.4-3.7,3.1-6.2,6-5.6l0,0
							c2.9,0.6,4.8,4,4.4,7.7L470,210.1z"/>
						<path class="st10" d="M482.9,70.6l-17.7,145.1c0,0,1.4,0,3.1-1.7c0.9-1,1.5-2.4,1.7-4l16.1-132.2
							C486.5,74.7,485.2,71.8,482.9,70.6z"/>
						<path class="st16" d="M484.2,120.4c-0.2,1.6-1.3,2.6-2.5,2.4l0,0c-1.2-0.2-2.1-1.7-1.9-3.3l4.3-34.8c0.2-1.6,1.3-2.6,2.5-2.4
							l0,0c1.2,0.2,2,1.7,1.9,3.3L484.2,120.4z"/>
						<path class="st17" d="M475.8,75.8L459.6,208c-0.4,3,0.9,5.9,3,7.1l0,0l17.7-145C478,70.6,476.1,72.8,475.8,75.8z"/>
					</g>
				</g>
			</g>
		</g>
		<g id="Correction_2_">
			<g id="Laptop_1_">
				<g>
					<rect x="709.5" y="432.2" class="st18" width="221.7" height="10.3"/>
					<path class="st19" d="M985.1,306.9H651.6c-15.3,0-20,9.6-17.1,20.9c0-0.1,0-0.3,0-0.4c0,0.8,0,1.5,0.2,2.3l24.1,91.1
						c3.6,13.8,6.9,14.3,24.9,14.2l278.8,0c14.5,0,21.5,0,24.4-13.9l18.8-91.4c0.1-0.3,0.1-0.7,0.1-1c0,0,0,0,0,0l0.9-7.7
						C1008.2,309.9,993.6,306.9,985.1,306.9z M634.7,326.2c0,0.2-0.1,0.4-0.1,0.6C634.7,326.6,634.7,326.4,634.7,326.2z
						 M635.5,324.1c-0.1,0.1-0.1,0.2-0.2,0.3C635.3,324.3,635.4,324.2,635.5,324.1z M635,325.1c-0.1,0.2-0.1,0.4-0.2,0.5
						C634.9,325.4,635,325.2,635,325.1z M648.7,316.2c0.5,0,1-0.1,1.5-0.1C649.7,316.1,649.2,316.1,648.7,316.2z M639.4,319.6
						c0,0,0.1-0.1,0.1-0.1C639.5,319.5,639.4,319.6,639.4,319.6z M640.5,318.9c0.1,0,0.1-0.1,0.2-0.1
						C640.6,318.8,640.6,318.8,640.5,318.9z M641.7,318.2c0.1-0.1,0.2-0.1,0.3-0.2C641.9,318.1,641.8,318.1,641.7,318.2z M643,317.6
						c0.1-0.1,0.3-0.1,0.4-0.2C643.2,317.5,643.1,317.5,643,317.6z M644.3,317.1c0.2-0.1,0.4-0.1,0.5-0.2
						C644.7,317,644.5,317,644.3,317.1z M645.7,316.7c0.2-0.1,0.5-0.1,0.7-0.2C646.2,316.6,645.9,316.6,645.7,316.7z M647.2,316.3
						c0.3,0,0.6-0.1,0.9-0.1C647.8,316.3,647.5,316.3,647.2,316.3z"/>
					<path class="st20" d="M651.6,306.9h333.5c8.5,0,23.1,3,21.9,14.1l-0.9,7.7c-1.2-5.8-8.4-12.7-15.5-12.7H650.2
						c-7.7,0-15.7,5.3-15.6,11.7C631.6,316.5,636.3,306.9,651.6,306.9L651.6,306.9z"/>
					<polygon class="st21" points="651.5,322.5 991,322.1 972.7,428.2 672.8,428.3 					"/>
					<path class="st22" d="M668.2,438.2h306.1c5.1,0,9.2,4.2,9.2,9.2v168.8c0,5.1-4.2,9.2-9.2,9.2H668.2c-5.1,0-9.2-4.2-9.2-9.2
						V447.4C659,442.4,663.1,438.2,668.2,438.2L668.2,438.2z"/>
					<path class="st10" d="M983.6,447.4c0-5.1-4.2-9.2-9.2-9.2h-25.8L753.4,625.5h220.9c5.1,0,9.2-4.2,9.2-9.2V447.4z"/>
					<rect x="777.9" y="568.4" class="st23" width="86.7" height="45.4"/>
					<rect x="675.1" y="454" class="st24" width="292.4" height="106.3"/>
				</g>
				<g id="Keyboard_1_">
					<path class="st25" d="M681.4,460.3H695c0.8,0,1.4,0.9,1.4,1.9v14.6c0,1-0.6,1.9-1.4,1.9h-13.6c-0.8,0-1.5-0.9-1.5-1.9v-14.6
						C679.9,461.2,680.6,460.3,681.4,460.3L681.4,460.3z"/>
					<path class="st25" d="M703.4,460.3H717c0.8,0,1.5,0.9,1.5,1.9v14.6c0,1-0.7,1.9-1.5,1.9h-13.6c-0.8,0-1.5-0.9-1.5-1.9v-14.6
						C702,461.2,702.6,460.3,703.4,460.3L703.4,460.3z"/>
					<path class="st25" d="M725.5,460.3H739c0.8,0,1.5,0.9,1.5,1.9v14.6c0,1-0.7,1.9-1.5,1.9h-13.5c-0.8,0-1.5-0.9-1.5-1.9v-14.6
						C724,461.2,724.7,460.3,725.5,460.3L725.5,460.3z"/>
					<path class="st25" d="M747.5,460.3h13.5c0.8,0,1.5,0.9,1.5,1.9v14.6c0,1-0.6,1.9-1.5,1.9h-13.5c-0.8,0-1.5-0.9-1.5-1.9v-14.6
						C746,461.2,746.7,460.3,747.5,460.3L747.5,460.3z"/>
					<path class="st25" d="M769.5,460.3h13.6c0.8,0,1.5,0.9,1.5,1.9v14.6c0,1-0.7,1.9-1.5,1.9h-13.6c-0.8,0-1.5-0.9-1.5-1.9v-14.6
						C768.1,461.2,768.7,460.3,769.5,460.3L769.5,460.3z"/>
					<path class="st25" d="M791.6,460.3h13.5c0.8,0,1.5,0.9,1.5,1.9v14.6c0,1-0.7,1.9-1.5,1.9h-13.5c-0.8,0-1.5-0.9-1.5-1.9v-14.6
						C790.1,461.2,790.8,460.3,791.6,460.3L791.6,460.3z"/>
					<path class="st25" d="M813.6,460.3h13.5c0.8,0,1.5,0.9,1.5,1.9v14.6c0,1-0.6,1.9-1.5,1.9h-13.5c-0.8,0-1.5-0.9-1.5-1.9v-14.6
						C812.1,461.2,812.8,460.3,813.6,460.3L813.6,460.3z"/>
					<path class="st25" d="M835.6,460.3h13.6c0.8,0,1.5,0.9,1.5,1.9v14.6c0,1-0.7,1.9-1.5,1.9h-13.6c-0.8,0-1.5-0.9-1.5-1.9v-14.6
						C834.2,461.2,834.8,460.3,835.6,460.3L835.6,460.3z"/>
					<path class="st25" d="M857.7,460.3h13.5c0.8,0,1.5,0.9,1.5,1.9v14.6c0,1-0.7,1.9-1.5,1.9h-13.5c-0.8,0-1.5-0.9-1.5-1.9v-14.6
						C856.2,461.2,856.8,460.3,857.7,460.3L857.7,460.3z"/>
					<path class="st25" d="M879.7,460.3h13.5c0.8,0,1.5,0.9,1.5,1.9v14.6c0,1-0.6,1.9-1.5,1.9h-13.5c-0.8,0-1.5-0.9-1.5-1.9v-14.6
						C878.2,461.2,878.9,460.3,879.7,460.3L879.7,460.3z"/>
					<path class="st25" d="M901.7,460.3h13.6c0.8,0,1.5,0.9,1.5,1.9v14.6c0,1-0.7,1.9-1.5,1.9h-13.6c-0.8,0-1.5-0.9-1.5-1.9v-14.6
						C900.3,461.2,900.9,460.3,901.7,460.3L901.7,460.3z"/>
					<path class="st25" d="M714.5,485.8H728c0.8,0,1.5,0.9,1.5,1.9v14.6c0,1-0.7,1.9-1.5,1.9h-13.5c-0.8,0-1.5-0.9-1.5-1.9v-14.6
						C713,486.7,713.7,485.8,714.5,485.8L714.5,485.8z"/>
					<path class="st25" d="M736.5,485.8h13.6c0.8,0,1.5,0.9,1.5,1.9v14.6c0,1-0.7,1.9-1.5,1.9h-13.6c-0.8,0-1.5-0.9-1.5-1.9v-14.6
						C735,486.7,735.7,485.8,736.5,485.8L736.5,485.8z"/>
					<path class="st25" d="M758.5,485.8h13.6c0.8,0,1.5,0.9,1.5,1.9v14.6c0,1-0.7,1.9-1.5,1.9h-13.6c-0.8,0-1.4-0.9-1.4-1.9v-14.6
						C757.1,486.7,757.7,485.8,758.5,485.8L758.5,485.8z"/>
					<path class="st25" d="M780.6,485.8h13.5c0.8,0,1.5,0.9,1.5,1.9v14.6c0,1-0.7,1.9-1.5,1.9h-13.5c-0.8,0-1.5-0.9-1.5-1.9v-14.6
						C779.1,486.7,779.8,485.8,780.6,485.8L780.6,485.8z"/>
					<path class="st25" d="M802.6,485.8h13.6c0.8,0,1.4,0.9,1.4,1.9v14.6c0,1-0.6,1.9-1.4,1.9h-13.6c-0.8,0-1.5-0.9-1.5-1.9v-14.6
						C801.1,486.7,801.8,485.8,802.6,485.8L802.6,485.8z"/>
					<path class="st25" d="M824.6,485.8h13.6c0.8,0,1.5,0.9,1.5,1.9v14.6c0,1-0.7,1.9-1.5,1.9h-13.6c-0.8,0-1.5-0.9-1.5-1.9v-14.6
						C823.2,486.7,823.8,485.8,824.6,485.8L824.6,485.8z"/>
					<path class="st25" d="M846.7,485.8h13.5c0.8,0,1.5,0.9,1.5,1.9v14.6c0,1-0.7,1.9-1.5,1.9h-13.5c-0.8,0-1.5-0.9-1.5-1.9v-14.6
						C845.2,486.7,845.9,485.8,846.7,485.8L846.7,485.8z"/>
					<path class="st25" d="M868.7,485.8h13.6c0.8,0,1.4,0.9,1.4,1.9v14.6c0,1-0.6,1.9-1.4,1.9h-13.6c-0.8,0-1.5-0.9-1.5-1.9v-14.6
						C867.2,486.7,867.9,485.8,868.7,485.8L868.7,485.8z"/>
					<path class="st25" d="M890.7,485.8h13.6c0.8,0,1.5,0.9,1.5,1.9v14.6c0,1-0.7,1.9-1.5,1.9h-13.6c-0.8,0-1.5-0.9-1.5-1.9v-14.6
						C889.2,486.7,889.9,485.8,890.7,485.8L890.7,485.8z"/>
					<path class="st25" d="M912.8,485.8h13.5c0.8,0,1.5,0.9,1.5,1.9v14.6c0,1-0.7,1.9-1.5,1.9h-13.5c-0.8,0-1.5-0.9-1.5-1.9v-14.6
						C911.3,486.7,912,485.8,912.8,485.8L912.8,485.8z"/>
					<path class="st25" d="M923.8,460.3h13.5c0.8,0,1.5,0.9,1.5,1.9v14.6c0,1-0.7,1.9-1.5,1.9h-13.5c-0.8,0-1.5-0.9-1.5-1.9v-14.6
						C922.3,461.2,922.9,460.3,923.8,460.3L923.8,460.3z"/>
					<path class="st25" d="M945.8,460.3h13.5c0.8,0,1.5,0.9,1.5,1.9v14.6c0,1-0.7,1.9-1.5,1.9h-13.5c-0.8,0-1.5-0.9-1.5-1.9v-14.6
						C944.3,461.2,945,460.3,945.8,460.3L945.8,460.3z"/>
					<path class="st25" d="M935.2,485.8h24.2c0.8,0,1.5,0.9,1.5,1.9v14.6c0,1-0.7,1.9-1.5,1.9h-24.2c-0.8,0-1.5-0.9-1.5-1.9v-14.6
						C933.7,486.7,934.3,485.8,935.2,485.8L935.2,485.8z"/>
					<path class="st25" d="M681.6,485.8h25.1c0.8,0,1.5,0.9,1.5,1.9v14.6c0,1-0.7,1.9-1.5,1.9h-25.1c-0.8,0-1.5-0.9-1.5-1.9v-14.6
						C680.2,486.7,680.8,485.8,681.6,485.8L681.6,485.8z"/>
					<path class="st25" d="M681.6,511.4h30c0.8,0,1.5,0.9,1.5,1.9v14.6c0,1-0.7,1.9-1.5,1.9h-30c-0.8,0-1.5-0.9-1.5-1.9v-14.6
						C680.2,512.2,680.8,511.4,681.6,511.4L681.6,511.4z"/>
					<path class="st25" d="M681.6,536.9h13.5c0.8,0,1.5,0.9,1.5,1.9v14.6c0,1-0.7,1.9-1.5,1.9h-13.5c-0.8,0-1.5-0.9-1.5-1.9v-14.6
						C680.2,537.7,680.8,536.9,681.6,536.9L681.6,536.9z"/>
					<path class="st25" d="M703.6,536.9h13.5c0.8,0,1.5,0.9,1.5,1.9v14.6c0,1-0.7,1.9-1.5,1.9h-13.5c-0.8,0-1.5-0.9-1.5-1.9v-14.6
						C702.2,537.7,702.8,536.9,703.6,536.9L703.6,536.9z"/>
					<path class="st25" d="M725.6,536.9h13.5c0.8,0,1.5,0.9,1.5,1.9v14.6c0,1-0.6,1.9-1.5,1.9h-13.5c-0.8,0-1.5-0.9-1.5-1.9v-14.6
						C724.2,537.7,724.8,536.9,725.6,536.9L725.6,536.9z"/>
					<path class="st25" d="M747.6,536.9h140.9c0.8,0,1.5,0.9,1.5,1.9v14.6c0,1-0.6,1.9-1.5,1.9H747.6c-0.8,0-1.5-0.9-1.5-1.9v-14.6
						C746.2,537.7,746.8,536.9,747.6,536.9L747.6,536.9z"/>
					<path class="st25" d="M719.8,511.6h13.5c0.8,0,1.5,0.9,1.5,1.9v14.6c0,1-0.7,1.9-1.5,1.9h-13.5c-0.8,0-1.5-0.9-1.5-1.9v-14.6
						C718.3,512.5,718.9,511.6,719.8,511.6L719.8,511.6z"/>
					<path class="st25" d="M741.8,511.6h13.6c0.8,0,1.5,0.9,1.5,1.9v14.6c0,1-0.7,1.9-1.5,1.9h-13.6c-0.8,0-1.5-0.9-1.5-1.9v-14.6
						C740.3,512.5,741,511.6,741.8,511.6L741.8,511.6z"/>
					<path class="st25" d="M763.8,511.6h13.6c0.8,0,1.5,0.9,1.5,1.9v14.6c0,1-0.7,1.9-1.5,1.9h-13.6c-0.8,0-1.4-0.9-1.4-1.9v-14.6
						C762.4,512.5,763,511.6,763.8,511.6L763.8,511.6z"/>
					<path class="st25" d="M785.8,511.6h13.5c0.8,0,1.5,0.9,1.5,1.9v14.6c0,1-0.7,1.9-1.5,1.9h-13.5c-0.8,0-1.5-0.9-1.5-1.9v-14.6
						C784.4,512.5,785,511.6,785.8,511.6L785.8,511.6z"/>
					<path class="st25" d="M807.9,511.6h13.6c0.8,0,1.4,0.9,1.4,1.9v14.6c0,1-0.6,1.9-1.4,1.9h-13.6c-0.8,0-1.5-0.9-1.5-1.9v-14.6
						C806.4,512.5,807.1,511.6,807.9,511.6L807.9,511.6z"/>
					<path class="st25" d="M829.9,511.6h13.6c0.8,0,1.5,0.9,1.5,1.9v14.6c0,1-0.7,1.9-1.5,1.9h-13.6c-0.8,0-1.5-0.9-1.5-1.9v-14.6
						C828.4,512.5,829.1,511.6,829.9,511.6L829.9,511.6z"/>
					<path class="st25" d="M851.9,511.6h13.5c0.8,0,1.5,0.9,1.5,1.9v14.6c0,1-0.7,1.9-1.5,1.9h-13.5c-0.8,0-1.5-0.9-1.5-1.9v-14.6
						C850.5,512.5,851.1,511.6,851.9,511.6L851.9,511.6z"/>
					<path class="st25" d="M874,511.6h13.6c0.8,0,1.4,0.9,1.4,1.9v14.6c0,1-0.6,1.9-1.4,1.9H874c-0.8,0-1.5-0.9-1.5-1.9v-14.6
						C872.5,512.5,873.2,511.6,874,511.6L874,511.6z"/>
					<path class="st25" d="M896,511.6h25.2c0.8,0,1.5,0.9,1.5,1.9v14.6c0,1-0.7,1.9-1.5,1.9H896c-0.8,0-1.5-0.9-1.5-1.9v-14.6
						C894.5,512.5,895.2,511.6,896,511.6L896,511.6z"/>
					<path class="st25" d="M929.2,511.4h30c0.8,0,1.5,0.9,1.5,1.9v14.6c0,1-0.7,1.9-1.5,1.9h-30c-0.8,0-1.5-0.9-1.5-1.9v-14.6
						C927.7,512.2,928.4,511.4,929.2,511.4L929.2,511.4z"/>
					<path class="st25" d="M931.9,536.9h11.3c0.3,0,0.5,0.3,0.5,0.6v5.1c0,0.4-0.2,0.6-0.5,0.6h-11.3c-0.3,0-0.5-0.3-0.5-0.6v-5.1
						C931.4,537.2,931.6,536.9,931.9,536.9L931.9,536.9z"/>
					<path class="st25" d="M931.9,547.9h11.3c0.3,0,0.5,0.3,0.5,0.6v5c0,0.4-0.2,0.6-0.5,0.6h-11.3c-0.3,0-0.5-0.3-0.5-0.6v-5
						C931.4,548.2,931.6,547.9,931.9,547.9L931.9,547.9z"/>
					<path class="st25" d="M915.1,547.9h11.3c0.3,0,0.5,0.3,0.5,0.6v5c0,0.4-0.2,0.6-0.5,0.6h-11.3c-0.3,0-0.5-0.3-0.5-0.6v-5
						C914.6,548.2,914.8,547.9,915.1,547.9L915.1,547.9z"/>
					<path class="st25" d="M948.6,547.9h11.3c0.3,0,0.5,0.3,0.5,0.6v5c0,0.4-0.2,0.6-0.5,0.6h-11.3c-0.3,0-0.5-0.3-0.5-0.6v-5
						C948.1,548.2,948.3,547.9,948.6,547.9L948.6,547.9z"/>
					<path class="st25" d="M895.5,536.9H909c0.8,0,1.5,0.9,1.5,1.9v14.6c0,1-0.7,1.9-1.5,1.9h-13.6c-0.8,0-1.5-0.9-1.5-1.9v-14.6
						C894,537.7,894.7,536.9,895.5,536.9L895.5,536.9z"/>
				</g>
			</g>
			<g id="Lens_1_">
				<path class="st26" d="M900.4,255.4c6.1-4.2,14.4-2.7,18.6,3.4l0,0c4.2,6.1,2.7,14.4-3.4,18.6l-60.2,41.5
					c-6.1,4.2-14.4,2.7-18.6-3.4l0,0c-4.2-6.1-2.7-14.4,3.4-18.6L900.4,255.4z"/>
				<path class="st10" d="M896.9,260.2c5.2-3.6,12.2-2.3,15.8,2.9l0,0c3.6,5.2,2.3,12.2-2.9,15.8l-51.1,35.2
					c-5.2,3.6-12.2,2.3-15.8-2.9l0,0c-3.6-5.2-2.3-12.2,2.9-15.8L896.9,260.2z"/>
				<path class="st3" d="M834.9,304.4c-1,3.7-0.4,7.7,1.9,11.1c2,2.9,5,4.8,8.3,5.5c0.9-2.7,0-6.8-2.6-10.6
					C840.2,307.2,837.4,305.1,834.9,304.4z"/>
				<path class="st27" d="M740.5,307.4c-27.9,19.2-34.9,57.5-15.7,85.4c19.2,27.9,57.5,34.9,85.4,15.7
					c25.9-17.8,33.8-51.9,19.5-79.1l13.1-9c0,0,2.4-11.3-8.3-13.5l-13.9,9.6C800.2,294.1,766,289.7,740.5,307.4z M814.8,330.6
					c15.1,21.8,9.6,51.7-12.3,66.8c-21.8,15.1-51.7,9.6-66.8-12.3c-15.1-21.8-9.6-51.7,12.3-66.8
					C769.9,303.3,799.8,308.8,814.8,330.6z"/>
				<path class="st10" d="M727.5,362.6c0.8,7.8,3.5,15.6,8.3,22.5c14.3,20.7,41.9,26.7,63.3,14.4C754.6,410,735.1,380.5,727.5,362.6
					z"/>
			</g>
			<g id="Active_6_">
				<g id="Active1_3_">
					<path class="st28" d="M806.1,390.9c1.9,0.7,3.5,1.7,5,2.9l7-2.9l4.7,8.1l-5.9,4.9c0.2,1,0.3,2,0.3,3c0,0.9-0.1,1.8-0.2,2.6
						l6.1,4.7l-4.7,8.1l-7-2.6c-1.5,1.3-3.1,2.3-5,3l-1,7.4H796l-1.2-7.3c-1.9-0.7-3.6-1.7-5-2.9l-7,2.9l-4.7-8.1l5.9-4.9
						c-0.2-1-0.3-2-0.3-3c0-0.9,0.1-1.8,0.2-2.6l-6.1-4.7l4.7-8.1l7,2.6c1.5-1.3,3.1-2.3,5-3l1-7.4h9.4L806.1,390.9z"/>
					<path class="st20" d="M800.4,419.1c6.7,0,12.2-5.5,12.2-12.2c0-6.7-5.5-12.2-12.2-12.2c-6.7,0-12.2,5.5-12.2,12.2
						C788.2,413.7,793.7,419.1,800.4,419.1L800.4,419.1z"/>
					<path class="st29" d="M800.4,415c4.5,0,8.1-3.6,8.1-8.1c0-4.5-3.6-8.1-8.1-8.1c-4.5,0-8.1,3.6-8.1,8.1
						C792.3,411.4,795.9,415,800.4,415L800.4,415z"/>
				</g>
				<g id="Active_7_">
					<path class="st30" d="M822.9,321.5c2.9,0.1,5.8,0.7,8.4,1.8l8.5-7.2l10.3,9.3l-6,9.5c0.7,1.3,1.3,2.6,1.7,4.1
						c0.4,1.3,0.7,2.5,0.9,3.8l10.7,3.8l-2.9,13.6l-11.1-0.5c-1.5,2.5-3.4,4.7-5.6,6.5l2,10.9l-13.2,4.3l-5.1-9.7
						c-2.9-0.1-5.8-0.7-8.4-1.8l-8.5,7.2l-10.3-9.3l6.1-9.5c-0.7-1.3-1.3-2.6-1.7-4.1c-0.4-1.3-0.7-2.5-0.9-3.8l-10.7-3.8l2.9-13.6
						l11.1,0.5c1.5-2.5,3.4-4.7,5.6-6.5l-2-10.9l13.2-4.3L822.9,321.5z"/>
					<path class="st20" d="M822.2,366.3c10.8,0,19.7-8.8,19.7-19.7c0-10.8-8.8-19.7-19.7-19.7c-10.8,0-19.7,8.8-19.7,19.7
						C802.5,357.4,811.4,366.3,822.2,366.3L822.2,366.3z"/>
					<path class="st29" d="M825.9,358c6.3-2,9.8-8.8,7.7-15.1c-2-6.3-8.8-9.8-15.1-7.7c-6.3,2-9.8,8.8-7.7,15.1
						C812.8,356.6,819.6,360,825.9,358L825.9,358z"/>
				</g>
			</g>
			<g id="Active_4_">
				<g id="Active1_2_">
					<path class="st31" d="M767.8,376.7c0.8-0.3,1.6-0.5,2.4-0.5l1.3-2.9l3.7,1.1l-0.4,3.1c0.3,0.2,0.6,0.5,0.9,0.8
						c0.3,0.3,0.5,0.6,0.7,0.9l3.2-0.3l0.9,3.8l-2.9,1.2c-0.1,0.8-0.3,1.6-0.7,2.3l1.8,2.5l-2.9,2.7l-2.4-1.9
						c-0.8,0.3-1.6,0.5-2.4,0.5l-1.3,2.9l-3.7-1.2l0.4-3.1c-0.3-0.2-0.6-0.5-0.9-0.8c-0.3-0.3-0.5-0.6-0.7-0.9l-3.2,0.3l-0.9-3.8
						l2.9-1.2c0.1-0.8,0.3-1.6,0.7-2.3l-1.8-2.5l2.9-2.7L767.8,376.7z"/>
					<path class="st20" d="M774.1,386.9c2-1.9,2.2-5.1,0.3-7.2c-1.9-2-5.1-2.2-7.2-0.3c-2,1.9-2.2,5.1-0.3,7.2
						C768.8,388.6,772,388.8,774.1,386.9L774.1,386.9z"/>
					<path class="st29" d="M772.9,385.6c1.4-1.3,1.4-3.4,0.2-4.8c-1.3-1.4-3.4-1.4-4.8-0.2c-1.4,1.3-1.4,3.4-0.2,4.8
						C769.4,386.8,771.6,386.9,772.9,385.6L772.9,385.6z"/>
				</g>
				<g id="Active_5_">
					<path class="st32" d="M753.3,350.7c0.9-0.8,2-1.4,3.1-1.8l0.6-4.6l5.8-0.1l0.8,4.6c0.6,0.2,1.1,0.5,1.7,0.8
						c0.5,0.3,0.9,0.6,1.4,0.9l4.4-1.9l3,5l-3.5,3c0.2,1.2,0.3,2.4,0.1,3.6l3.7,2.8l-2.8,5l-4.3-1.5c-0.9,0.8-2,1.4-3.1,1.8
						l-0.6,4.6l-5.8,0.1l-0.8-4.6c-0.6-0.2-1.1-0.5-1.7-0.8c-0.5-0.3-0.9-0.6-1.4-0.9l-4.4,1.9l-3-5l3.5-3c-0.2-1.2-0.3-2.4-0.1-3.6
						l-3.7-2.8l2.8-5L753.3,350.7z"/>
					<path class="st20" d="M765.8,364.6c3.3-3.1,3.5-8.3,0.4-11.6c-3.1-3.3-8.3-3.5-11.6-0.4c-3.3,3.1-3.5,8.3-0.4,11.6
						C757.3,367.4,762.5,367.6,765.8,364.6L765.8,364.6z"/>
					<path class="st29" d="M764.6,361c1.3-2.4,0.5-5.5-1.9-6.8c-2.4-1.3-5.4-0.5-6.8,1.9c-1.3,2.4-0.5,5.4,1.9,6.8
						C760.2,364.3,763.2,363.4,764.6,361L764.6,361z"/>
				</g>
			</g>
		</g>
		<g id="Blooming_1_">
			<path class="st33" d="M254.8,595.7c-18-15.9-9.8-53-9.8-53h-26.8h-26.8c0,0,8.2,37.1-9.8,53c-18,15.9-39,15.9-39,15.9v8.9h75.7
				h75.7v-8.9C293.8,611.6,272.8,611.6,254.8,595.7z"/>
			<rect x="142.5" y="611.6" class="st34" width="151.3" height="8.9"/>
			<path class="st35" d="M418.1,518.9c0,13.2-10.7,23.8-23.8,23.8H42c-13.2,0-23.8-10.7-23.8-23.8V324.2c0-13.2,10.7-23.8,23.8-23.8
				h352.3c13.2,0,23.8,10.7,23.8,23.8V518.9z"/>
			<path class="st36" d="M18.1,324.2v194.7c0,4.6,1.3,8.9,3.6,12.6h392.8c2.3-3.7,3.6-8,3.6-12.6V324.2c0-6.2-2.4-11.8-6.2-16H24.3
				C20.5,312.4,18.1,318,18.1,324.2z"/>
			<rect x="35.3" y="316.2" class="st37" width="365.6" height="207"/>
			<rect x="71.6" y="448.7" class="st38" width="39" height="74.5"/>
			<rect x="137.8" y="426.2" class="st39" width="39" height="97"/>
			<rect x="204.6" y="378.9" class="st40" width="39" height="144.3"/>
			<rect x="274.4" y="354.1" class="st41" width="39" height="169.1"/>
			<rect x="341" y="328" class="st42" width="39" height="191.7"/>
			<g>
				<g>
					<polygon class="st14" points="61.4,478.6 57.8,473.8 171.2,388.7 292.8,376 378.5,325.4 381.5,330.5 294.7,381.8 173.5,394.5 
											"/>
				</g>
				<circle class="st43" cx="59.6" cy="476.2" r="9.8"/>
				<circle class="st43" cx="172.4" cy="391.6" r="9.8"/>
				<circle class="st43" cx="293.8" cy="378.9" r="9.8"/>
				<circle class="st43" cx="380" cy="328" r="9.8"/>
			</g>
		</g>
		<g id="Man">
			<polygon class="st44" points="437.8,588.5 443.2,540.4 561.4,516.3 559.3,553.7 564.2,585 547.2,601 509.7,614.9 456.6,602.7 			
				"/>
			<path class="st45" d="M421.9,585l18.4-19.4c0,0,18.3,45.2,63.2,42.5c44.9-2.7,57.9-40.5,57.9-40.5l23.7,17.4l1.7,43.9
				c0,0-90.8,23.5-105.1,20.1c-14.3-3.4-64.6-27.2-64.6-27.2L421.9,585z"/>
			<path class="st46" d="M585.2,585c-16.3,42.8-81.6,46.9-81.6,46.9s-65.3-4.1-81.6-46.9c0,0-151,36.7-163.2,181.6
				c0,0,61.2,120.4,244.8,132.6c183.6-12.2,244.8-132.6,244.8-132.6C736.1,621.7,585.2,585,585.2,585z"/>
			<path class="st47" d="M614.7,329c-13.3-47.9-111.2-63.2-111.2-63.2S405.6,281,392.4,329c-13.3,47.9-3.1,103,11.2,145.9
				c14.3,42.8,42.8,95.9,100,116.3c57.1-20.4,85.7-73.4,100-116.3C617.8,432,628,376.9,614.7,329z"/>
			<path class="st10" d="M520.4,269.2c27.9,40.8,83.9,153.8-4,316.5c48.6-23.3,73.9-71.4,87.1-110.9C617.8,432,628,376.9,614.7,329
				C604.9,293.6,549,276,520.4,269.2z"/>
			<path class="st10" d="M748.3,766.5c-10-117.9-111.8-164.2-149.4-177.3c36.6,47.2,110.6,155.9,91.9,242.2
				C732,798.7,748.3,766.5,748.3,766.5z"/>
		</g>
	</g>
</g>
</svg>
