<?xml version="1.0" encoding="utf-8"?>
<!-- Generator: Adobe Illustrator 19.2.1, SVG Export Plug-In . SVG Version: 6.00 Build 0)  -->
<svg version="1.1" xmlns="http://www.w3.org/2000/svg" xmlns:xlink="http://www.w3.org/1999/xlink" x="0px" y="0px"
	 viewBox="0 0 1029.3 902.7" style="enable-background:new 0 0 1029.3 902.7;" xml:space="preserve">
<style type="text/css">
	.st0{fill:none;stroke:#D1240D;stroke-width:10;stroke-miterlimit:10;}
	.st1{fill-rule:evenodd;clip-rule:evenodd;fill:#FFFFFF;}
	.st2{fill-rule:evenodd;clip-rule:evenodd;fill:#FBC081;}
	.st3{fill-rule:evenodd;clip-rule:evenodd;fill:#4D4D4D;}
	.st4{fill-rule:evenodd;clip-rule:evenodd;fill:#B96F2D;}
	.st5{fill-rule:evenodd;clip-rule:evenodd;fill:#E4883A;}
	.st6{fill-rule:evenodd;clip-rule:evenodd;fill:#F99E3F;}
	.st7{fill-rule:evenodd;clip-rule:evenodd;fill:#F1698D;}
	.st8{fill-rule:evenodd;clip-rule:evenodd;fill:#D85E7F;}
	.st9{fill-rule:evenodd;clip-rule:evenodd;fill:#FEC974;}
	.st10{fill-rule:evenodd;clip-rule:evenodd;fill:#E6E6E6;}
	.st11{fill-rule:evenodd;clip-rule:evenodd;fill:#F2BF5D;}
	.st12{fill-rule:evenodd;clip-rule:evenodd;fill:#F0687B;}
	.st13{fill-rule:evenodd;clip-rule:evenodd;fill:#6564AC;}
	.st14{fill-rule:evenodd;clip-rule:evenodd;fill:#F7A271;}
	.st15{fill-rule:evenodd;clip-rule:evenodd;fill:#6BC06F;}
	.st16{fill-rule:evenodd;clip-rule:evenodd;fill:#03386E;}
	.st17{fill-rule:evenodd;clip-rule:evenodd;fill:#335E8A;}
	.st18{fill-rule:evenodd;clip-rule:evenodd;fill:#808080;}
	.st19{fill-rule:evenodd;clip-rule:evenodd;fill:#B3B3B3;}
	.st20{fill-rule:evenodd;clip-rule:evenodd;fill:#F16858;}
	.st21{fill-rule:evenodd;clip-rule:evenodd;fill:#F2F2F2;}
	.st22{fill-rule:evenodd;clip-rule:evenodd;fill:#666666;}
</style>
<g id="Слой_1">
	<g id="Analytics">
		<g id="Background">
			<circle id="Background_2" class="st0" cx="496.9" cy="488.6" r="399"/>
		</g>
	</g>
</g>
<g id="Слой_2">
	<g id="Accounting_Concept_1_">
		<path class="st1" d="M359.3,250.2h80c6.8,0,12.3,5.5,12.3,12.3v80.1c0,6.7-5.5,12.3-12.3,12.3h-80c-6.8,0-12.4-5.6-12.4-12.3
			v-80.1C346.9,255.7,352.5,250.2,359.3,250.2L359.3,250.2z"/>
		<g>
			<path class="st2" d="M546.1,818.7l-30.3-7.7c-23.4,13.2-26.2,26.2-1.1,39.1l30.7-7.6C602.7,828.2,601.3,833.1,546.1,818.7
				L546.1,818.7z"/>
			<path class="st3" d="M561.1,839c37.5-8.8,36.8-7.8,0.3-16.7c-3.5,2.2-5.6,5.2-5.7,8.3C555.7,833.8,557.7,836.7,561.1,839
				L561.1,839z"/>
			<path class="st4" d="M324.1,837.5l18.3,0.1l161.6,0.3c8.3,0,15,3.4,14.9,7.5l0,0c-0.1,4.1-7,7.5-15.3,7.5l-179.9-0.4
				c-0.7,0-1.3,0-2-0.1l-18.5-0.1c-7.1,0-12.8-2.9-12.7-6.4l0.2-8.5L324.1,837.5z"/>
			<path class="st5" d="M324.1,839.5l18.3,0.1l161.6,0.5c8.3,0,15.1-3.8,15.3-8.5l0,0c0.1-4.6-6.6-8.5-14.9-8.5l-161.6-0.5
				l-18.3-0.1l-33.4-0.1l-0.4,17L324.1,839.5z"/>
			<path class="st6" d="M324.9,807.6h7.3l172.6,0.6c8.3,0,15,3.9,14.9,8.7l0,0c-0.1,4.8-7,8.6-15.3,8.6l-161.6-0.5l-18.3-0.1
				l-33.4-0.1l0.3-10c0.1-3.7,5-6.8,11.2-7.3L324.9,807.6z"/>
			<path class="st7" d="M257.2,840.8l0.6-22.5c0.1-6.2,5.4-11.2,11.6-11.2h29.2c6.2,0.1,11.1,5.1,11,11.3l-0.6,22.5
				c-0.2,6.2-5.4,11.2-11.6,11.2l-29.2-0.1C262,852.1,257,847,257.2,840.8L257.2,840.8z"/>
			<path class="st8" d="M291,847.2l1.1-35.3c0.1-2.7,2.4-4.8,5-4.8h9.7c2.6,0,4.7,2.2,4.6,4.8l-1.1,35.4c-0.1,2.6-2.4,4.8-5,4.8
				h-9.6C293,852,290.9,849.9,291,847.2L291,847.2z"/>
		</g>
		<path class="st9" d="M161,609.4c-24.9-25.3-1.1-91.4,38.1-120.3c50.3-37,94.5-52.4,127.8-29c-31.3,30.1-66.2,56.5-96.4,87.7
			c-25.8,26.6,34,10.6,60.2-14.8l4,84c-5.2,10.9-10.7,20.9-13.9,32.5c-6.5,23.7-9.3,50.7-14.3,75.7l-71.8,2.9
			C187.3,679.1,194.4,643.3,161,609.4L161,609.4z"/>
		<g>
			<g>
				<polygon class="st10" points="842.4,159.8 362.4,88.5 266.8,732.7 746.8,803.9 				"/>
				<polygon class="st1" points="248.7,784 752.6,784 752.6,107.8 338.1,107.8 338.1,107.8 338.1,107.8 248.7,197.2 248.7,197.2 
									"/>
			</g>
			<polygon class="st10" points="338.1,107.8 248.7,197.2 338.1,196 			"/>
		</g>
		<g>
			<path class="st11" d="M332.8,356c0-76.2,61.8-138,138-138v138H332.8L332.8,356z"/>
			<path class="st12" d="M501.6,382.7H613c-0.1,33.7-15,63.9-38.6,84.3L501.6,382.7z"/>
			<path class="st13" d="M550.5,249.5C546.4,247.9,548.5,248.7,550.5,249.5L550.5,249.5z M550.6,249.5c52,19.8,89,70.1,89,129h-138
				L550.6,249.5z"/>
			<path class="st14" d="M538.1,269.9l-39.7,104.7V262.3C512.4,262.4,525.8,265.1,538.1,269.9L538.1,269.9z"/>
			<path class="st15" d="M497.5,523c-76.2,0-138-61.8-138-138h138l90.1,104.5C563.4,510.4,531.9,523,497.5,523L497.5,523z"/>
			<path class="st1" d="M432.4,460.3c0,0.8,0.6,1.3,1.4,1.3c0.7,0,1.3-0.5,1.3-1.3c0-14.1,12.2-16.7,12.2-26.5
				c0-0.7-0.6-1.3-1.3-1.3h-16c-0.7,0-1.3,0.6-1.3,1.3c0,0.7,0.6,1.3,1.3,1.3h14.5C444.5,441.7,432.4,446.1,432.4,460.3L432.4,460.3
				z M461.4,459.3c-5.4,0-7.8-3.6-7.8-12.5c0-8.9,2.4-12.4,7.8-12.4c5.3,0,7.7,3.6,7.7,12.4C469.1,455.7,466.7,459.3,461.4,459.3
				L461.4,459.3z M461.4,431.8c-7.3,0-10.6,4.7-10.6,15c0,10.3,3.4,15.1,10.6,15.1c7.2,0,10.6-4.8,10.6-15.1
				C471.9,436.5,468.5,431.8,461.4,431.8L461.4,431.8z M497.2,432.1c-0.5,0-0.8,0.3-0.9,0.5l-14,27.5c-0.1,0.2-0.1,0.3-0.1,0.4
				c0,0.6,0.5,1.1,1.1,1.1c0.3,0,0.7-0.2,0.9-0.5l13.9-27.5c0.1-0.1,0.1-0.3,0.1-0.4C498.3,432.6,497.8,432.1,497.2,432.1
				L497.2,432.1z M482.3,443.9c-3.2,0-4.1-2.4-4.1-5c0-2.8,0.9-5,4.1-5c3.4,0,4.2,2.3,4.2,5C486.4,441.5,485.6,443.9,482.3,443.9
				L482.3,443.9z M482.3,431.8c-4.6,0-6.3,3.1-6.3,7s1.7,7,6.3,7c4.7,0,6.3-3.1,6.3-7S487,431.8,482.3,431.8L482.3,431.8z
				 M498.1,459.9c-3.2,0-4.1-2.3-4.1-5c0-2.8,0.9-5,4.1-5c3.4,0,4.2,2.3,4.2,5C502.3,457.6,501.5,459.9,498.1,459.9L498.1,459.9z
				 M498.1,447.9c-4.6,0-6.3,3.1-6.3,7c0,3.8,1.7,7,6.3,7c4.7,0,6.3-3.2,6.3-7C504.5,451,502.8,447.9,498.1,447.9L498.1,447.9z"/>
			<path class="st1" d="M389.9,293.6c0.3,0.3,0.6,0.5,0.9,0.5c0.6,0,1.1-0.5,1.1-1.1c0-0.3-0.1-0.5-0.2-0.7
				c-1.5-2.3-4.3-3.8-7.7-3.8c-5.2,0-7.7,2.9-7.7,6.2c0,8.5,13.6,5.4,13.6,12.1c0,3.2-2.2,4.8-6.2,4.8c-3.2,0-5.2-1.5-6.4-3.4
				c-0.2-0.4-0.5-0.6-1-0.6c-0.7,0-1.1,0.5-1.1,1.1c0,0.2,0,0.4,0.2,0.7c1.2,2.4,4.2,4.4,8.3,4.4c5.6,0,8.7-2.5,8.7-7
				c0-8.7-13.6-6.1-13.6-12.1c0-2.1,1.5-3.9,5.2-3.9C387.1,290.8,388.8,292.3,389.9,293.6L389.9,293.6z M402.4,298.6
				c2.6,0,4.2,1.5,4.2,4v0.9h-5.1c-3.8,0-6.3,1.9-6.3,5.1c0,3.3,2.4,5.1,6.2,5.1c2.2,0,4.2-0.9,5.2-2.6v1.3c0,0.6,0.5,1.1,1.1,1.1
				c0.7,0,1.1-0.5,1.1-1.1v-9.9c0-3.7-2.3-6.1-6.5-6.1c-3,0-5,1.2-6,2.8c-0.1,0.2-0.2,0.3-0.2,0.6c0,0.6,0.5,1.1,1.1,1.1
				c0.3,0,0.5-0.1,0.9-0.5C399.3,299.1,400.4,298.6,402.4,298.6L402.4,298.6z M401.6,311.6c-2.8,0-4.1-1.2-4.1-3
				c0-2.1,1.7-3.1,4-3.1h5.1v1.5C406.6,310.1,404.2,311.6,401.6,311.6L401.6,311.6z M418.3,313.6c0.5,0,0.9-0.3,1.1-0.7l6.1-14.5
				c0.1-0.1,0.1-0.3,0.1-0.5c0-0.7-0.5-1.1-1.1-1.1c-0.7,0-0.9,0.4-1.1,0.7l-5.1,12.4l-5-12.4c-0.1-0.3-0.5-0.7-1.1-0.7
				c-0.7,0-1.1,0.5-1.1,1.1c0,0.3,0.1,0.4,0.1,0.5l6.1,14.5C417.5,313.3,417.8,313.6,418.3,313.6L418.3,313.6z M427.5,305
				c0,6.1,3,8.7,7.8,8.7c3.2,0,5.1-1.5,5.6-2c0.2-0.2,0.3-0.4,0.3-0.8c0-0.6-0.5-1.1-1-1.1c-0.3,0-0.4,0.1-0.7,0.3
				c-1,0.7-2.2,1.5-4.3,1.5c-3.4,0-5.4-2.4-5.4-5.9h10.6c1.4,0,1.4-1.2,1.4-2.3c0-2.4-1.1-7-6.9-7
				C430.2,296.4,427.5,299.5,427.5,305L427.5,305z M439.5,303.7h-9.7c0.2-3.2,1.9-5.2,5.1-5.2C438.6,298.5,439.5,301.1,439.5,303.7
				L439.5,303.7z"/>
		</g>
		<g>
			<path class="st9" d="M230.3,561.3l-21.4,100.4l25.7,59.8l36.1,2.1l0.5-23.7c2.8-17.2,5.5-34.5,9.8-50.4
				c3.2-11.6,8.7-21.7,13.9-32.5c0-0.6,41.2-108.9,45.4-119.9c4.1-11-1.5-23.5-11.4-29.6c-5.7-3.6-16.1-4.6-21.2-1.9
				C286.5,477.1,273.4,563,230.3,561.3L230.3,561.3z"/>
			<path class="st1" d="M331.7,507.1c0.8-2.4,4.6-12.8,4.6-14.4c-0.5-27.6-25.6-26.8-35.6-10.4c-2.8,4.6-3.8,8.9-5.4,14.8
				C291.2,511.4,326.4,522.3,331.7,507.1L331.7,507.1z"/>
		</g>
		<g>
			<path class="st16" d="M182,784.7c18.6,3.2,37.5,4.8,56.7,4.8c12.3,0,24.5-0.7,36.4-2v-52.6c0-4.4-3-8.1-6.7-8.1h-79.8
				c-3.7,0-6.7,3.6-6.7,8.1V784.7z"/>
			<path class="st17" d="M277.1,733.5h-96.8c-2.8,0-5.1-2.3-5.1-5.1v-10.6c0-2.8,2.3-5.1,5.1-5.1h96.8c2.8,0,5.1,2.3,5.1,5.1v10.6
				C282.2,731.3,279.9,733.5,277.1,733.5L277.1,733.5z"/>
		</g>
		<path class="st9" d="M904.5,545.7c26-26.4,1.2-95.2-39.6-125.2c-52.3-38.5-98.4-54.6-133.1-30.1c36.4,35,72.8,69.9,109.1,104.8
			c-47.1,1.9-35.9,3.2-71.5-29l-4.1,87.4c5.4,11.3,11.1,21.7,14.4,33.9c6.7,24.7,9.7,52.7,14.9,78.8l74.7,3
			C877.2,618.2,869.9,580.9,904.5,545.7L904.5,545.7z"/>
		<g>
			<path class="st16" d="M673.5,376.6l251.7,194.3c2.3,1.7,5.6,1.3,7.4-1l19.6-25.4c1.8-2.3,1.3-5.6-0.9-7.4L699.6,342.9
				c-2.4-1.8-5.6-1.3-7.4,0.9l-19.6,25.4C670.7,371.5,671.2,374.9,673.5,376.6L673.5,376.6z"/>
			<polygon class="st18" points="691.2,345 648.1,306.3 617.4,306.4 682.4,356.5 			"/>
			<polygon class="st19" points="673.5,368 625.1,336.1 617.4,306.4 682.4,356.5 			"/>
			<path class="st10" d="M645.6,321.2c2.4,1.9,2.9,5.3,1,7.7c-1.9,2.4-5.3,2.9-7.7,1c-2.4-1.9-2.9-5.3-1-7.7
				C639.8,319.8,643.2,319.4,645.6,321.2L645.6,321.2z"/>
			<path class="st17" d="M958.1,549L958.1,549c3.2,2.5,3.8,7.2,1.3,10.4l-10.3,13.2c-2.5,3.2-7.2,3.8-10.4,1.3l0,0
				c-3.2-2.5-3.8-7.2-1.3-10.4l10.3-13.2C950.2,547.1,954.8,546.5,958.1,549L958.1,549z"/>
			<polygon class="st17" points="944.3,565 877.8,513.7 874.6,517.9 941,569.1 			"/>
			<polygon class="st10" points="858.6,465.6 863.6,469.4 842.5,496.7 837.5,493 			"/>
			<polygon class="st10" points="734.5,369.8 739,373.3 716.8,402.2 712.2,398.6 			"/>
		</g>
		<g>
			<path class="st9" d="M759.3,416.7l14.5,38.3c4.5,18.4,16.7,32.1,27.2,44l1.5,32c0.6,12-3.7,39.2-11.5,30.2l0,0
				c-10.6,5.4-22.7,0.7-26.9-10.4L718.8,431c-4.2-11.2,0.9-24.7,11.5-30.2l0,0C739.2,392.9,755,405.6,759.3,416.7L759.3,416.7z"/>
			<path class="st1" d="M729.7,439.8c-0.7-2.1-4.3-11.7-4.2-13c0.5-25.1,18.2-23.3,27.2-8.4c2.5,4.1,3.7,8.6,5.2,14
				C761.6,445.4,734.4,453.6,729.7,439.8L729.7,439.8z"/>
		</g>
		<g>
			<path class="st16" d="M882.7,728.1c-19.3,3.3-39,5-59,5c-12.8,0-25.5-0.7-38-2.1v-54.8c0-4.6,3.2-8.4,7-8.4h83c3.8,0,7,3.8,7,8.4
				V728.1z"/>
			<path class="st17" d="M783.8,674.8h100.8c3,0,5.3-2.4,5.3-5.3v-11c0-3-2.4-5.3-5.3-5.3H783.8c-2.9,0-5.3,2.4-5.3,5.3v11
				C778.4,672.5,780.9,674.8,783.8,674.8L783.8,674.8z"/>
		</g>
		<g>
			<rect x="354.4" y="564" class="st13" width="238.8" height="13.7"/>
			<rect x="454.3" y="607.1" class="st13" width="73.7" height="13.7"/>
			<rect x="354.4" y="652.4" class="st13" width="139.3" height="13.7"/>
			<rect x="354.4" y="607.1" class="st13" width="80.2" height="13.7"/>
			<rect x="354.4" y="690.3" class="st13" width="215.8" height="13.6"/>
			<rect x="510.1" y="652.4" class="st13" width="85.9" height="13.7"/>
		</g>
		<g>
			<path class="st20" d="M73.7,205.4h145.7c4.8,0,8.7,4,8.7,8.8v226.9c0,4.8-3.9,8.8-8.7,8.8H73.7c-4.8,0-8.8-4-8.8-8.8V214.2
				C64.9,209.4,68.8,205.4,73.7,205.4L73.7,205.4z"/>
			<rect x="74.9" y="243.8" class="st10" width="141.7" height="28.4"/>
			<path class="st14" d="M162.6,218.6h50c2.2,0,4,1.8,4,4v6.1c0,2.2-1.8,4.1-4,4.1h-50c-2.2,0-4-1.9-4-4.1v-6.1
				C158.6,220.4,160.4,218.6,162.6,218.6L162.6,218.6z"/>
			<rect x="64.9" y="284.6" class="st14" width="163.3" height="5.4"/>
			<path class="st21" d="M91.4,310.2h26.8c0.8,0,1.5-0.7,1.5-1.5v-4.9c0-0.9-0.7-1.5-1.5-1.5H91.4c-0.9,0-1.5,0.7-1.5,1.5v4.9
				C89.9,309.5,90.5,310.2,91.4,310.2L91.4,310.2z"/>
			<path class="st21" d="M133.1,310.2h26.8c0.9,0,1.6-0.7,1.6-1.5v-4.9c0-0.9-0.7-1.5-1.6-1.5h-26.8c-0.9,0-1.5,0.7-1.5,1.5v4.9
				C131.6,309.5,132.2,310.2,133.1,310.2L133.1,310.2z"/>
			<path class="st21" d="M174.8,310.2h26.8c0.9,0,1.5-0.7,1.5-1.5v-4.9c0-0.9-0.7-1.5-1.5-1.5h-26.8c-0.9,0-1.6,0.7-1.6,1.5v4.9
				C173.2,309.5,173.9,310.2,174.8,310.2L174.8,310.2z"/>
			<path class="st21" d="M92.2,323.1h13.6c2.4,0,4.4,2,4.4,4.3V341c0,2.4-1.9,4.4-4.4,4.4H92.2c-2.4,0-4.3-1.9-4.3-4.4v-13.6
				C87.8,325.1,89.8,323.1,92.2,323.1L92.2,323.1z"/>
			<path class="st21" d="M92.2,351.8h13.6c2.4,0,4.4,1.9,4.4,4.4v13.6c0,2.4-1.9,4.3-4.4,4.3H92.2c-2.4,0-4.3-2-4.3-4.3v-13.6
				C87.8,353.7,89.8,351.8,92.2,351.8L92.2,351.8z"/>
			<path class="st21" d="M92.2,380.4h13.6c2.4,0,4.4,2,4.4,4.4v13.6c0,2.4-1.9,4.4-4.4,4.4H92.2c-2.4,0-4.3-2-4.3-4.4v-13.6
				C87.8,382.4,89.8,380.4,92.2,380.4L92.2,380.4z"/>
			<path class="st21" d="M92.2,409.1h13.6c2.4,0,4.4,2,4.4,4.3V427c0,2.4-1.9,4.4-4.4,4.4H92.2c-2.4,0-4.3-2-4.3-4.4v-13.6
				C87.8,411.1,89.8,409.1,92.2,409.1L92.2,409.1z"/>
			<path class="st21" d="M123.8,323.1h13.6c2.4,0,4.4,2,4.4,4.3V341c0,2.4-1.9,4.4-4.4,4.4h-13.6c-2.4,0-4.3-1.9-4.3-4.4v-13.6
				C119.4,325.1,121.4,323.1,123.8,323.1L123.8,323.1z"/>
			<path class="st21" d="M123.8,351.8h13.6c2.4,0,4.4,1.9,4.4,4.4v13.6c0,2.4-1.9,4.3-4.4,4.3h-13.6c-2.4,0-4.3-2-4.3-4.3v-13.6
				C119.4,353.7,121.4,351.8,123.8,351.8L123.8,351.8z"/>
			<path class="st21" d="M123.9,380.4h13.5c2.4,0,4.4,2,4.4,4.4v13.6c0,2.4-1.9,4.4-4.4,4.4h-13.5c-2.4,0-4.4-2-4.4-4.4v-13.6
				C119.5,382.4,121.5,380.4,123.9,380.4L123.9,380.4z"/>
			<path class="st21" d="M123.9,409.1h13.5c2.4,0,4.4,2,4.4,4.3V427c0,2.4-1.9,4.4-4.4,4.4h-13.5c-2.4,0-4.4-2-4.4-4.4v-13.6
				C119.5,411.1,121.5,409.1,123.9,409.1L123.9,409.1z"/>
			<path class="st21" d="M155.4,323.1h13.6c2.4,0,4.4,2,4.4,4.3V341c0,2.4-2,4.4-4.4,4.4h-13.6c-2.4,0-4.4-1.9-4.4-4.4v-13.6
				C151,325.1,153,323.1,155.4,323.1L155.4,323.1z"/>
			<path class="st21" d="M155.4,351.8h13.6c2.4,0,4.4,1.9,4.4,4.4v13.6c0,2.4-2,4.3-4.4,4.3h-13.6c-2.4,0-4.4-2-4.4-4.3v-13.6
				C151,353.7,153,351.8,155.4,351.8L155.4,351.8z"/>
			<path class="st21" d="M155.6,380.4h13.6c2.4,0,4.3,2,4.3,4.4v13.6c0,2.4-2,4.4-4.3,4.4h-13.6c-2.4,0-4.4-2-4.4-4.4v-13.6
				C151.2,382.4,153.1,380.4,155.6,380.4L155.6,380.4z"/>
			<path class="st21" d="M155.6,409.1h13.6c2.4,0,4.3,2,4.3,4.3V427c0,2.4-2,4.4-4.3,4.4h-13.6c-2.4,0-4.4-2-4.4-4.4v-13.6
				C151.2,411.1,153.1,409.1,155.6,409.1L155.6,409.1z"/>
			<path class="st21" d="M187,323.1h13.6c2.4,0,4.4,2,4.4,4.3V341c0,2.4-2,4.4-4.4,4.4H187c-2.4,0-4.4-1.9-4.4-4.4v-13.6
				C182.6,325.1,184.5,323.1,187,323.1L187,323.1z"/>
			<path class="st21" d="M187,351.8h13.6c2.4,0,4.4,1.9,4.4,4.4v13.6c0,2.4-2,4.3-4.4,4.3H187c-2.4,0-4.4-2-4.4-4.3v-13.6
				C182.6,353.7,184.5,351.8,187,351.8L187,351.8z"/>
			<path class="st14" d="M205.2,413.4v2.5V427c0,2.4-2,4.4-4.4,4.4h-13.6c-2.4,0-4.3-2-4.3-4.4v-11.1v-2.5v-26.9
				c0-2.4,2-4.4,4.3-4.4h13.6c2.4,0,4.4,2,4.4,4.4V413.4z"/>
			<path class="st22" d="M198.5,256.8v-5.5l0,0c0.1-1.3,0.8-2.6,1.9-3.4c1.1-0.8,2.6-1.3,4.4-1.3c1.7,0,3.2,0.5,4.4,1.3
				c1.1,0.9,1.8,2.1,1.9,3.4l0,0v5.5c-0.3,0.2-0.5,0.3-0.9,0.3c-0.3,0-0.6-0.1-0.9-0.3v-5.3c0-1-0.5-1.9-1.3-2.6
				c-0.8-0.6-1.9-1-3.2-1c-1.3,0-2.4,0.4-3.2,1c-0.8,0.7-1.3,1.5-1.3,2.6v5.3c-0.3,0.2-0.6,0.3-0.9,0.3
				C199.1,257.1,198.9,257,198.5,256.8L198.5,256.8z M198.5,258.8v5.5l0,0c0.1,1.3,0.8,2.6,1.9,3.4c1.1,0.8,2.6,1.3,4.4,1.3
				c1.7,0,3.2-0.5,4.4-1.3c1.1-0.9,1.8-2.1,1.9-3.4l0,0v-5.5c-0.3-0.2-0.5-0.3-0.9-0.3c-0.3,0-0.6,0.1-0.9,0.3v5.3
				c0,1-0.5,1.9-1.3,2.6c-0.8,0.6-1.9,1-3.2,1c-1.3,0-2.4-0.4-3.2-1c-0.8-0.7-1.3-1.5-1.3-2.6v-5.3c-0.3-0.2-0.6-0.3-0.9-0.3
				C199.1,258.6,198.9,258.6,198.5,258.8L198.5,258.8z"/>
		</g>
	</g>
</g>
</svg>
