<?xml version="1.0" encoding="utf-8"?>
<!-- Generator: Adobe Illustrator 19.2.1, SVG Export Plug-In . SVG Version: 6.00 Build 0)  -->
<svg version="1.1" xmlns="http://www.w3.org/2000/svg" xmlns:xlink="http://www.w3.org/1999/xlink" x="0px" y="0px"
	 viewBox="0 0 1029.3 902.7" style="enable-background:new 0 0 1029.3 902.7;" xml:space="preserve">
<style type="text/css">
	.st0{fill:none;stroke:#D1240D;stroke-width:10;stroke-miterlimit:10;}
	.st1{fill:#BCBEC0;}
	.st2{fill:#FFFFFF;}
	.st3{fill:#CCE5BE;}
	.st4{fill:#EF3F47;}
	.st5{fill:#F04C51;}
	.st6{opacity:0.1;fill:#231F20;}
	.st7{fill:#1F3A6E;}
	.st8{fill:#00A296;}
	.st9{fill:#F68D43;}
	.st10{fill:#EF3E56;}
	.st11{fill:#12294C;}
	.st12{fill:#EDA620;}
	.st13{fill:#0F142B;}
	.st14{fill:#2B3451;}
	.st15{fill:#81D7EA;}
	.st16{fill:#1A243D;}
	.st17{opacity:0.1;}
	.st18{fill:#F7B1BE;}
	.st19{fill:#D1D3D4;}
</style>
<g id="Analytics">
	<g id="Background">
		<circle id="Background_2" class="st0" cx="496.9" cy="488.6" r="399"/>
	</g>
</g>
<g id="Слой_2">
	<g id="Analysis_2_">
		<g>
			<g>
				<path class="st1" d="M635,158.7c-12.6,0-33.2,0-45.8,0H431.4c-12.6,0-22.9,10.3-22.9,22.9v478.3c0,12.6,10.3,22.9,22.9,22.9
					h157.8c12.6,0,33.2,0,45.8,0h157.8c12.6,0,22.9-10.3,22.9-22.9V181.6c0-12.6-10.3-22.9-22.9-22.9H635z"/>
			</g>
			<g>
				<path class="st2" d="M622,145.5c-12.6,0-33.2,0-45.8,0H418.3c-12.6,0-22.9,10.3-22.9,22.9v478.3c0,12.6,10.3,22.9,22.9,22.9
					h157.8c12.6,0,33.2,0,45.8,0h157.8c12.6,0,22.9-10.3,22.9-22.9V168.4c0-12.6-10.3-22.9-22.9-22.9H622z"/>
			</g>
			<rect x="416.9" y="170.4" class="st3" width="364.3" height="190"/>
			<rect x="416.9" y="389.4" class="st1" width="364.3" height="21.8"/>
			<rect x="416.9" y="439.8" class="st1" width="253.7" height="21.8"/>
			<rect x="416.9" y="482.2" class="st1" width="253.7" height="21.8"/>
			<rect x="416.9" y="529.2" class="st1" width="253.7" height="21.8"/>
			<rect x="416.9" y="575" class="st1" width="364.3" height="21.8"/>
			<rect x="416.9" y="616.3" class="st1" width="253.7" height="21.8"/>
			<rect x="694.6" y="467.4" class="st4" width="21.4" height="89.5"/>
			<rect x="732.1" y="435.7" class="st5" width="21.4" height="121.2"/>
			<rect x="770.2" y="451.7" class="st5" width="21.4" height="105.2"/>
			<polygon class="st6" points="483.7,313.3 483.7,360.4 709.8,360.4 710.4,217.5 612.2,300.2 567.2,261.8 			"/>
			<g>
				<g>
					<polygon class="st7" points="506.5,322.4 495.4,311.3 565.3,241.4 612.4,288.5 689.3,211.6 700.4,222.7 612.4,310.7 
						565.3,263.6 					"/>
				</g>
				<circle class="st8" cx="502.9" cy="313.3" r="19.2"/>
				<circle class="st9" cx="564.5" cy="256" r="19.2"/>
				<circle class="st10" cx="691.2" cy="217.5" r="19.2"/>
				<circle class="st2" cx="612.2" cy="300.2" r="19.2"/>
			</g>
		</g>
		<g>
			<g>
				<polygon class="st7" points="906.4,630.6 883.1,653.3 815.4,585.6 838.4,562.6 				"/>
				
					<rect x="801.9" y="543.1" transform="matrix(0.7071 -0.7071 0.7071 0.7071 -158.4308 740.0316)" class="st11" width="24.2" height="36.3"/>
				
					<rect x="813.4" y="572.9" transform="matrix(0.7071 -0.7071 0.7071 0.7071 -164.9212 755.5978)" class="st12" width="32.5" height="7.9"/>
				<path class="st7" d="M685.8,433c-34,34-34,89.1,0,123c34,34,89.1,34,123,0c34-34,34-89.1,0-123C774.8,399,719.7,399,685.8,433z
					 M797.1,544.3c-27.5,27.5-72.2,27.5-99.7,0c-27.5-27.5-27.5-72.2,0-99.7c27.5-27.5,72.2-27.5,99.7,0
					C824.6,472.2,824.6,516.8,797.1,544.3z"/>
			</g>
		</g>
		<g>
			<path class="st13" d="M530.2,800.3c0,7.2-5.9,13.1-13.1,13.1H165.5c-7.2,0-13.1-5.9-13.1-13.1V544c0-7.2,5.9-13.1,13.1-13.1
				h351.7c7.2,0,13.1,5.9,13.1,13.1V800.3z"/>
			<rect x="172.8" y="549.3" class="st2" width="337" height="220.3"/>
			<path class="st5" d="M555.5,787.6H385.6v5.7h-88.7v-5.7H127h-9v9v3.9v3.9c0,5,4.1,9,9,9h428.5c5,0,9-4.1,9-9v-3.9v-3.9v-9H555.5z
				"/>
			<polygon class="st6" points="509.8,733.5 387.9,611.6 320.7,619.4 293,705.7 357,769.6 509.8,769.6 			"/>
			<g>
				<path class="st10" d="M341.3,693.4v32.9c36.9,0,66.8-29.9,66.8-66.8h-32.9C375.2,678.2,360,693.4,341.3,693.4z"/>
				<path class="st9" d="M307.4,659.5c0-18.7,15.2-33.9,33.9-33.9v-32.9c-36.9,0-66.8,29.9-66.8,66.8c0,36.9,29.9,66.8,66.8,66.8
					v-32.9C322.6,693.4,307.4,678.2,307.4,659.5z"/>
				<path class="st8" d="M341.3,592.7v32.9c18.7,0,33.9,15.2,33.9,33.9h32.9C408.1,622.6,378.2,592.7,341.3,592.7z"/>
			</g>
		</g>
		<g>
			<polygon class="st2" points="180.3,180.6 180.3,355.7 361.2,355.3 361.2,180.3 			"/>
			<rect x="172.5" y="170.7" class="st14" width="193.4" height="9.7"/>
			<rect x="172.5" y="355.5" class="st14" width="193.4" height="9.7"/>
			<g>
				<polygon class="st9" points="191.5,224.9 191.5,330.6 206.2,330.6 218.9,330.6 218.9,318.3 218.9,224.9 				"/>
				<polygon class="st15" points="235.8,234 235.8,301.8 235.8,330.6 263.1,330.6 263.1,275.3 263.1,234 				"/>
				<polygon class="st8" points="278.7,200.2 278.7,260.2 278.7,330.6 306.1,330.6 306.1,233.7 306.1,200.2 				"/>
				<rect x="320.7" y="220.4" class="st10" width="27.3" height="110.2"/>
			</g>
		</g>
		<g>
			<rect x="256.6" y="435.8" class="st16" width="27.5" height="6.9"/>
			<rect x="256.6" y="439.3" class="st17" width="27.5" height="3.4"/>
			<circle class="st14" cx="320.8" cy="443.4" r="39.3"/>
			<circle class="st2" cx="320.8" cy="443.4" r="32.8"/>
			<g class="st17">
				<path d="M348.6,415.6L293,471.2c7.1,7.1,16.9,11.5,27.8,11.5c21.7,0,39.3-17.6,39.3-39.3C360.2,432.5,355.8,422.7,348.6,415.6z"
					/>
			</g>
			<circle class="st14" cx="220.6" cy="443.4" r="39.3"/>
			<circle class="st2" cx="220.6" cy="443.4" r="32.8"/>
			<g class="st17">
				<path d="M248.4,415.6l-55.6,55.6c7.1,7.1,16.9,11.5,27.8,11.5c21.7,0,39.3-17.6,39.3-39.3C259.9,432.5,255.5,422.7,248.4,415.6z
					"/>
			</g>
		</g>
		<g>
			<g>
				<path class="st13" d="M794.7,694.6c4.4,0,8,3.6,8,8v103.1c0,4.4-3.6,8-8,8h-179c-4.4,0-8-3.6-8-8V702.7c0-4.4,3.6-8,8-8H794.7z"
					/>
			</g>
			<rect x="612.6" y="744.3" class="st2" width="5.4" height="19.9"/>
			<polygon class="st2" points="622.3,802.4 781.6,802.4 781.6,709.2 781.6,706.1 719.9,706.1 622.3,706.1 			"/>
			<rect x="636.8" y="717.9" class="st18" width="129.5" height="14.5"/>
			<rect x="709.6" y="736.6" class="st19" width="56.8" height="2.2"/>
			<rect x="709.6" y="745.1" class="st19" width="56.8" height="2.2"/>
			<rect x="709.6" y="753.7" class="st19" width="56.8" height="2.2"/>
			<rect x="709.6" y="762.2" class="st19" width="56.8" height="2.2"/>
			<rect x="709.6" y="770.7" class="st19" width="56.8" height="2.2"/>
			<rect x="709.6" y="779.3" class="st19" width="56.8" height="2.2"/>
			<rect x="709.6" y="787.8" class="st19" width="56.8" height="2.2"/>
			<rect x="643.9" y="736.6" class="st19" width="49.7" height="2.2"/>
			<rect x="636.8" y="745.1" class="st19" width="56.8" height="2.2"/>
			<rect x="636.8" y="753.7" class="st19" width="56.8" height="2.2"/>
			<rect x="636.8" y="762.2" class="st19" width="56.8" height="2.2"/>
			<rect x="636.8" y="770.7" class="st19" width="56.8" height="2.2"/>
			<rect x="636.8" y="779.3" class="st19" width="56.8" height="2.2"/>
			<rect x="636.8" y="787.8" class="st19" width="56.8" height="2.2"/>
		</g>
	</g>
</g>
</svg>
