<?xml version="1.0" encoding="utf-8"?>
<!-- Generator: Adobe Illustrator 19.2.1, SVG Export Plug-In . SVG Version: 6.00 Build 0)  -->
<svg version="1.1" id="Layer_1" xmlns="http://www.w3.org/2000/svg" xmlns:xlink="http://www.w3.org/1999/xlink" x="0px" y="0px"
	 viewBox="0 0 800 600" style="enable-background:new 0 0 800 600;" xml:space="preserve">
<style type="text/css">
	.st0{fill:#FDDCBE;}
	.st1{fill:#E6E7E8;}
	.st2{fill:#F5F5F5;}
	.st3{fill:#3D3429;}
	.st4{fill:#CCCCCC;}
	.st5{fill:#EB7D86;}
	.st6{fill:#FFFFFF;}
	.st7{fill:#3B52AB;}
	.st8{fill:#D1D3D4;}
	.st9{fill:#297770;}
	.st10{fill:#BD872C;}
	.st11{fill:#873E35;}
</style>
<g>
	<g>
		<g>
			<g>
				<path class="st0" d="M367.1,214.9c68.2-43.3,63.4-105.3,62.8-108.4c-0.7-4-1.5-12.1,2.3-12.3c1.9-0.1,3,1,3.6,3.4
					c0.1-1.7,0.3-3.6,2.1-4c1.5-0.4,3.6,1.9,4.1,3.6c0,0.2,0.1,0.3,0.1,0.5c-0.1-0.1-0.1-0.3-0.1-0.5c-0.2-1.5,0.8-3.7,2.2-4.1
					c1.9-0.5,3.2,1.7,3.7,3.6c0.1-1.7,0.6-3.1,2.3-3.6c3.6-1,4.2,6.3,4.5,10.7c0.2,3.5,1.4,81.4-75.3,128.6L367.1,214.9z"/>
			</g>
		</g>
		<g>
			<g>
				<path class="st1" d="M367.1,214.9l12.3,17.4c25.2-15.5,42-34.3,53.2-52.7c-9.2,2-19.9,3.7-29.3,3.6
					C394.4,194.1,382.6,205,367.1,214.9z"/>
			</g>
		</g>
		<g>
			<g>
				<g>
					<g>
						<g>
							<path class="st2" d="M331.3,370.2l59.4-184.3c29.1,9.5,55.7,6.3,67.1,4.1c26.6,26,75.4,121.9,74.4,156.4
								C472.2,377.7,416.8,399.9,331.3,370.2z"/>
						</g>
					</g>
				</g>
				<g>
					<g>
						<path class="st3" d="M532.3,346.5l35.5-16L606,367c0,0,65.4-25.1,35.2-34.4c-32-9.9-35.2,19.6-35.2,19.6l-31.5-40.5l-37.9,8
							c0,0-21.8-66.3-57.6-116.2l35-23.6l50.9,4.6c0,0,40.9-42.9,9.2-41.2c-25.7,1.4-17,31.6-17,31.6l-43.4-11.5l-55.8,26.7
							L532.3,346.5z"/>
					</g>
				</g>
				<g>
					<g>
						<path class="st4" d="M482.3,208.1l-72.7,38.7l-8.7-8.7l-8.6,3.2l-2.4,20.4l6.9,5.1l12.2-6.5l94.7-16.3
							C497.5,232,490.3,219.7,482.3,208.1z"/>
					</g>
				</g>
				<g>
					<path class="st1" d="M396.4,374.1c9.3,3.4,18.4,6.5,27.1,9.4c16.1-1.3,31.4-4.7,46.1-9.5c-20.4-5.4-43.4-12.2-67.3-20.4
						c-11.1-3.8-22.4-7.9-33.7-12.3l-1.1,19.3C379.2,365.2,385.4,370.2,396.4,374.1z"/>
				</g>
				<g>
					<g>
						<polygon class="st3" points="392.4,241.3 401,238.1 409.7,246.8 488.6,194.1 521.5,209 503.9,238.3 409.1,260.3 396.9,266.8 
							390,261.7 						"/>
					</g>
				</g>
				<g>
					<g>
						<g>
							<path class="st0" d="M390.7,185.9c0,0-188.2-87.4-177.1,88.2c0,0,18.6,60.6,117.7,96C401,260,390.7,185.9,390.7,185.9z"/>
						</g>
					</g>
					<g>
						<g>
							<path class="st3" d="M210.2,97.3c0,0,124.9,44.8,37.4,182.6l40,25.6c0,0-20.7,11.1-4.7,22.1c16,11.1,16.1-13.5,16.1-13.5
								s28.4,29.9,32.4,56.1c1.7-0.3-204.7-19.5-152.3-86.8c0,0-30.9-23.8-15.2-74.2C180.1,157,250.8,158.9,210.2,97.3z"/>
						</g>
					</g>
				</g>
			</g>
			<g>
				<g>
					<path class="st5" d="M339.2,259.3c0,0,4-22.8,14.3-51c0,0,27.2,8.7,20.3,33.2C366.2,268.6,339.2,259.3,339.2,259.3z"/>
				</g>
			</g>
			<g>
				<g>
					<g>
						<path class="st2" d="M358.2,359.5l10.4-18.2c10.2,6.7,20.4,13,30.4,19.1l-10,18.8C379,373.1,368.7,366.5,358.2,359.5z"/>
					</g>
				</g>
				<g>
					<g>
						<path class="st0" d="M399,360.4c69.3,41.5,122.6,9.4,125.1,7.5c3.2-2.4,10.1-6.8,12-3.5c1,1.7,0.5,3.1-1.4,4.8
							c1.6-0.7,3.4-1.3,4.5,0c1.1,1.2-0.1,4.1-1.4,5.3c-0.1,0.1-0.3,0.2-0.4,0.3c0.1-0.1,0.2-0.2,0.4-0.3c1.3-0.9,3.7-0.9,4.7,0.2
							c1.3,1.4-0.1,3.7-1.6,4.9c1.6-0.7,3.1-0.9,4.2,0.5c2.5,2.8-3.8,6.6-7.5,8.8c-3,1.8-72.1,37.8-148.7-9.6L399,360.4z"/>
					</g>
				</g>
			</g>
		</g>
	</g>
	<g>
		<ellipse transform="matrix(0.231 -0.973 0.973 0.231 -21.1273 498.8322)" class="st3" cx="305" cy="262.8" rx="6.6" ry="14.4"/>
		<ellipse transform="matrix(0.231 -0.973 0.973 0.231 66.2795 458.1335)" class="st3" cx="323" cy="187.1" rx="6.6" ry="14.4"/>
	</g>
</g>
<g>
	<path class="st0" d="M613.9,572.4c-2.4,9.6-5,13.5-6.3,23.2l-28.9-12.4c2.7-14.1,10.1-30.9,13.9-45.3c3.1-11.7,7.1-26.2,4.7-38.4
		c-1.7-8-7.9-27.7-13.5-35.5c-1.5-2.2-4.8-7.3-3.5-10.3c0.5-2.4,5.2-1.9,7.7,1c5.2,7.8,13.5,15.1,18.2,12.6c4.2-2.2,5.1-9.2,5-13.4
		c0.4-5.1,2.7-17.8,2.4-22.9c-0.2-3-0.2-11.3,3.7-12.2c6.6-1.5,5.4,20.4,5.5,24.1c0.1,2.1-0.9,7.4,1.3,8.7
		c5.9,3.4,11.2-28.4,12.1-32.3c0.8-3,2.9-9.1,7-9.8c5.6-0.9-1.2,24.2-2,26.2c-2,6.4-6.7,16.8-4.1,19.6c1.8,2,6.8-3.4,10.3-9.1
		c3.1-5,6.4-15.4,9.5-18.7c1.6-1.8,6.4-2.5,6.1,1.2c0.1,4.2-6.7,18.9-8.6,22.4c-0.8,2-5.6,11-4.1,13.2c2.1,2.8,6.8-4.6,8.4-6.3
		c3-3.2,8.5-12.6,11.2-10.7c3.5,2.4-1.7,10.6-6.7,16.8c-7.9,9.7-23.5,32.7-26.3,38.2C629.5,517.5,620,548.6,613.9,572.4z"/>
	<g>
		<g>
			<polygon class="st6" points="624.5,544.8 625.5,540.9 590.2,532.9 589.1,537.1 			"/>
			<polygon class="st7" points="614.6,600 627.4,545.4 587.1,536.5 567.5,600 			"/>
			
				<ellipse transform="matrix(1 -3.946153e-003 3.946153e-003 1 -2.1705 2.4497)" class="st8" cx="619.7" cy="551.2" rx="3.5" ry="3.5"/>
			
				<ellipse transform="matrix(1 -3.960507e-003 3.960507e-003 1 -2.2182 2.4482)" class="st8" cx="617" cy="561.3" rx="3.5" ry="3.5"/>
		</g>
	</g>
</g>
<g>
	<path class="st0" d="M193.9,570.8c3,9.4,5.8,18.8,8.6,28.2l24.9-22.6c-4.8-13.6-9.6-27.1-14.3-41.2c-3.8-11.5-8.6-25.7-7.1-38
		c1.2-8.1,6.2-28.2,11.3-36.3c1.4-2.3,4.4-7.6,2.9-10.5c-0.6-2.4-5.3-1.6-7.6,1.5c-4.7,8.1-12.6,15.9-17.4,13.7
		c-4.3-1.9-5.6-8.9-5.8-13.1c-0.7-5.1-3.8-17.6-3.8-22.7c0-3-0.5-11.3-4.4-11.9c-6.7-1.1-4.1,20.7-4,24.4c0.1,2.1,1.4,7.3-0.8,8.7
		c-5.7,3.7-12.9-27.7-14.1-31.5c-1-2.9-3.4-8.9-7.6-9.3c-5.6-0.6,2.7,24.1,3.6,26c2.4,6.2,7.7,16.4,5.3,19.4c-1.7,2.1-7-3-10.8-8.5
		c-3.4-4.8-7.3-15-10.6-18.1c-1.7-1.7-6.5-2.1-6,1.6c0.2,4.2,7.8,18.5,9.9,21.8c0.9,1.9,6.3,10.7,4.9,12.9c-1.9,2.9-7.1-4.1-8.8-5.7
		c-3.2-3-9.2-12.1-11.9-10c-3.4,2.6,2.3,10.5,7.8,16.3c8.5,9.2,25.4,31.2,28.6,36.5C175,516.9,186.4,547.4,193.9,570.8z"/>
	<g>
		<g>
			<polygon class="st6" points="179.6,541.4 178.3,537.6 212.9,527 214.3,531.1 			"/>
			<polygon class="st9" points="194.3,600 176.7,542.3 216.2,530.3 240.6,600 			"/>
			
				<ellipse transform="matrix(0.9974 -7.150310e-002 7.150310e-002 0.9974 -38.6758 14.6188)" class="st8" cx="184.9" cy="547.5" rx="3.5" ry="3.5"/>
			
				<ellipse transform="matrix(0.9974 -7.148888e-002 7.148888e-002 0.9974 -39.3625 14.8854)" class="st8" cx="188.3" cy="557.3" rx="3.5" ry="3.5"/>
		</g>
	</g>
</g>
<g>
	<path class="st0" d="M467.2,579.3c-0.2,7-0.4,13.8-0.7,20.7h29.6c0.6-23.2,2.6-50.9,6.1-65.7c1.4-6,11.2-32,16.7-43.3
		c3.5-7.2,6.7-16.4,2.7-17.9c-3.1-1.2-6.2,9.3-8.4,13.1c-1.2,2-4.1,10.3-6.7,8.1c-2-1.7,0.6-11.6,0.9-13.7
		c1.1-3.8,4.2-19.7,3.1-23.8c-0.6-3.7-5.1-1.9-6.2,0.2c-2.3,3.9-3.1,14.9-4.9,20.4c-2.1,6.4-5.7,12.7-7.9,11.2
		c-3.2-2.1-1.1-13.4-0.6-20.1c0.3-2.1,1.1-28.2-4.1-26c-3.8,1.6-4.5,8-4.5,11.1c-0.1,4,2.2,36.1-4.3,34.2c-2.5-0.7-2.7-6.1-3.3-8.1
		c-0.9-3.5-4.8-25.1-10.9-22.1c-3.5,1.7-1.6,9.8-0.8,12.7c1.5,4.9,2.2,17.8,3,22.9c1,4.1,1.8,11.1-1.8,14.2
		c-4,3.5-13.8-1.7-20.7-8.1c-3.2-2.2-7.9-1.7-7.7,0.8c-0.6,3.2,3.8,7.5,5.8,9.2c7.2,6.3,17.9,24,21.4,31.4
		C468,552.2,467.5,567.3,467.2,579.3z"/>
	<g>
		<g>
			<polygon class="st6" points="463.9,570.8 464.2,566.8 500.2,570.4 499.9,574.6 			"/>
			<polygon class="st10" points="457.6,600 460.9,570.4 502,574.7 501.6,600 			"/>
			
				<ellipse transform="matrix(0.3185 -0.9479 0.9479 0.3185 -230.4282 836.3835)" class="st8" cx="466.4" cy="578.4" rx="3.5" ry="3.5"/>
			
				<ellipse transform="matrix(0.3185 -0.9479 0.9479 0.3185 -240.7135 842.8646)" class="st8" cx="465.8" cy="588.8" rx="3.5" ry="3.5"/>
		</g>
	</g>
</g>
<g>
	<g>
		<path class="st0" d="M383.3,504.9c0.1-2.5-4.6-3.1-7.7-0.9c-6.8,6.3-16.7,11.5-20.7,8c-3.6-3.1-2.8-10.1-1.7-14.2
			c0.8-5.1,1.6-17.9,3.1-22.9c0.9-2.9,2.8-11-0.7-12.7c-6.1-3-10.1,18.6-11,22.1c-0.6,2-0.8,7.4-3.3,8.1c-6.6,1.9-4.1-30.3-4.2-34.2
			c0-3.1-0.7-9.5-4.5-11.1c-5.2-2.2-4.5,23.8-4.2,25.9c0.5,6.7,2.5,17.9-0.7,20.1c-2.2,1.5-5.8-4.9-7.8-11.3
			c-1.8-5.6-2.6-16.5-4.8-20.4c-1.1-2.1-5.6-3.9-6.2-0.2c-1.1,4.1,2,20,3,23.8c0.3,2.1,2.9,12,0.9,13.7c-2.7,2.3-5.5-6-6.7-8.1
			c-2.2-3.8-5.2-14.2-8.4-13.1c-4,1.5-0.9,10.7,2.6,17.9c5.4,11.3,15.1,37.3,16.5,43.3c3.2,13.9,5.1,39.1,5.7,61.3h29.5
			c-0.2-5.3-0.3-10.7-0.4-16.1c-0.2-12.1-0.7-27.1,4.5-38.4c3.5-7.4,14.2-25.1,21.5-31.4C379.5,512.4,383.9,508.1,383.3,504.9z"/>
	</g>
	<g>
		<g>
			<polygon class="st6" points="354.1,570 354.1,566 317.9,567.2 317.9,571.5 			"/>
			<polygon class="st11" points="358.8,600 357.1,569.9 315.8,571.4 315.6,600 			"/>
			
				<ellipse transform="matrix(0.9667 -0.2558 0.2558 0.9667 -136.0343 109.0081)" class="st8" cx="351.1" cy="577.5" rx="3.5" ry="3.5"/>
			
				<ellipse transform="matrix(0.9667 -0.2558 0.2558 0.9667 -138.7012 109.344)" class="st8" cx="351" cy="587.9" rx="3.5" ry="3.5"/>
		</g>
	</g>
</g>
</svg>
